<?xml version="1.0" ?>
<svg xmlns="http://www.w3.org/2000/svg" version="1.1" width="600" height="600">
  <defs/>
  <g>
    <path stroke-width="0" fill="rgb(0, 0, 0)" opacity="1.0" d="M 266.4747314453125 479.9017028808594 C 266.4739074707031 473.8043212890625 266.4758605957031 467.60870361328125 266.4742126464844 461.4130859375 C 266.6624755859375 455.2174072265625 266.49114990234375 449.021728515625 266.4726867675781 442.8260498046875 C 266.4749755859375 436.63043212890625 266.4765625 430.434814453125 266.665283203125 424.2391357421875 C 266.4757385253906 418.04345703125 266.4749450683594 411.84783935546875 266.47222900390625 405.65216064453125 C 266.66033935546875 399.45654296875 266.63934326171875 393.2608642578125 266.4786071777344 387.065185546875 C 266.4797668457031 380.86956787109375 266.6568603515625 374.6739501953125 266.4736328125 368.478271484375 C 266.6669616699219 362.2825927734375 266.6687927246094 356.08697509765625 266.6701354980469 349.89129638671875 C 266.4774475097656 343.6956787109375 266.4891052246094 337.5 266.66900634765625 331.2161560058594 C 264.14007568359375 326.8401184082031 261.4734802246094 322.5787658691406 258.96185302734375 318.1856994628906 C 256.6352233886719 313.61749267578125 254.138671875 309.201171875 251.4672393798828 304.9487609863281 C 248.93692016601562 300.58074951171875 246.62472534179688 295.9896240234375 244.1141815185547 291.5955810546875 C 241.6035919189453 287.2010803222656 239.10740661621094 282.78369140625 236.41648864746094 278.5577392578125 C 234.0137176513672 274.0665283203125 231.5772705078125 269.5976257324219 228.8958740234375 265.35662841796875 C 226.38482666015625 260.9631652832031 224.0559844970703 256.3970642089844 221.56646728515625 251.97080993652344 C 218.86537170410156 247.76084899902344 216.3608856201172 243.35653686523438 214.05039978027344 238.7627716064453 C 211.3677520751953 234.5252227783203 209.03982543945312 229.95709228515625 206.33645629882812 225.75099182128906 C 204.02915954589844 221.15176391601562 201.3493194580078 216.91102600097656 198.8196563720703 212.544189453125 C 196.51202392578125 207.945556640625 193.8163299560547 203.72669982910156 191.49803161621094 199.14566040039062 C 188.7989044189453 194.93235778808594 186.2930145263672 190.53045654296875 183.962646484375 185.96604919433594 C 181.2884979248047 181.7152862548828 178.77748107910156 177.321533203125 176.27410888671875 172.9156951904297 C 173.76788330078125 168.51451110839844 171.25946044921875 164.1167449951172 168.94839477539062 159.5239715576172 C 166.24853515625 155.3118896484375 163.744384765625 150.90711975097656 161.2363739013672 146.50892639160156 C 158.7319793701172 142.1046905517578 156.2241668701172 137.70603942871094 153.9116668701172 133.11553955078125 C 151.4082489013672 128.7097625732422 148.90052795410156 124.31083679199219 146.3975372314453 119.90117645263672 C 152.9410400390625 119.90101623535156 159.5821533203125 119.90137481689453 166.2230224609375 120.09980010986328 C 172.864013671875 120.0987319946289 179.505126953125 120.09941864013672 186.1461181640625 120.09982299804688 C 192.787109375 120.09888458251953 199.4281005859375 120.09967803955078 206.069091796875 119.90018463134766 C 212.7100830078125 119.93399810791016 219.3511962890625 120.0988540649414 225.92462158203125 119.90154266357422 C 227.7288818359375 122.9271240234375 229.36842346191406 125.94894409179688 230.81480407714844 129.15872192382812 C 232.61502075195312 132.03712463378906 234.28948974609375 135.01068115234375 235.73287963867188 138.22573852539062 C 239.20071411132812 144.08876037597656 242.29188537597656 150.31234741210938 245.5741424560547 156.35057067871094 C 247.40765380859375 159.18336486816406 248.85643005371094 162.3890838623047 250.68531799316406 165.22984313964844 C 252.13552856445312 168.43301391601562 253.90065002441406 171.34446716308594 255.4134979248047 174.47894287109375 C 257.23114013671875 177.33641052246094 258.7025451660156 180.50662231445312 260.52532958984375 183.35691833496094 C 261.9781799316406 186.55601501464844 263.6138000488281 189.5842742919922 265.2621765136719 192.59210205078125 C 267.0857238769531 195.44107055664062 268.7259826660156 198.4618682861328 270.3656005859375 201.48373413085938 C 271.8800964355469 204.61712646484375 273.4624328613281 207.69775390625 275.2592468261719 210.58517456054688 C 278.5455322265625 216.6199493408203 281.84088134765625 222.64004516601562 285.12237548828125 228.6800079345703 C 288.2308349609375 234.8772430419922 291.6816711425781 240.7660675048828 294.9572448730469 246.81546020507812 C 298.0562744140625 253.02548217773438 301.3336486816406 259.07220458984375 304.6112365722656 265.12445068359375 C 307.8023986816406 258.89849853515625 310.9930114746094 252.8595733642578 314.3661193847656 246.9905548095703 C 317.3656311035156 240.7682647705078 320.5500183105469 234.71902465820312 323.9289245605469 228.85952758789062 C 326.95037841796875 222.6693115234375 330.1255187988281 216.60885620117188 333.492431640625 210.7299346923828 C 336.49542236328125 204.5135498046875 339.6928405761719 198.4849853515625 343.05938720703125 192.60606384277344 C 346.2224426269531 186.52706909179688 349.24456787109375 180.33682250976562 352.431884765625 174.29281616210938 C 355.80999755859375 168.43190002441406 358.8141784667969 162.21737670898438 361.994384765625 156.1611785888672 C 365.3567810058594 150.27749633789062 368.3803405761719 144.0918731689453 371.7165222167969 138.17279052734375 C 374.7481384277344 131.9924774169922 377.9385986328125 125.95382690429688 381.1241149902344 120.0948486328125 C 387.3929443359375 120.09891510009766 393.5654296875 120.09883880615234 399.7379150390625 119.90019226074219 C 405.910400390625 120.09980773925781 412.0828857421875 120.0998306274414 418.25537109375 119.90010833740234 C 424.4278564453125 120.0995864868164 430.6002197265625 120.09982299804688 436.772705078125 119.9002456665039 C 442.9451904296875 119.91944122314453 449.11767578125 120.09969329833984 455.3874816894531 120.09943389892578 C 452.9688415527344 124.40837860107422 450.56036376953125 128.73817443847656 447.9494934082031 132.8642120361328 C 445.72821044921875 137.37242126464844 443.319091796875 141.70126342773438 440.71380615234375 145.83665466308594 C 438.4869689941406 150.33558654785156 436.07147216796875 154.65365600585938 433.65380859375 158.96847534179688 C 431.2364501953125 163.28421020507812 428.65240478515625 167.45274353027344 426.3484191894531 171.86436462402344 C 423.9953918457031 176.24745178222656 421.4079284667969 180.41104125976562 418.9858093261719 184.7191925048828 C 416.7049255371094 189.15635681152344 414.1557922363281 193.35691833496094 411.7447204589844 197.68252563476562 C 409.3306884765625 202.0030517578125 406.91796875 206.32568359375 404.5011291503906 210.64178466796875 C 402.0879821777344 214.96372985839844 399.68438720703125 219.30038452148438 397.2619934082031 223.6083221435547 C 394.851318359375 227.93406677246094 392.4709167480469 232.29580688476562 390.01763916015625 236.5663604736328 C 387.6200256347656 240.9110565185547 385.1908264160156 245.2095947265625 382.93817138671875 249.67335510253906 C 380.50128173828125 253.9712371826172 377.9505920410156 258.17431640625 375.53131103515625 262.4861755371094 C 373.30450439453125 266.98541259765625 370.705322265625 271.130859375 368.3188171386719 275.4892883300781 C 365.8976745605469 279.801513671875 363.4673156738281 284.0992126464844 361.0547790527344 288.4220275878906 C 358.6399230957031 292.7414855957031 356.2348327636719 297.0750427246094 353.99822998046875 301.5594482421875 C 351.4153747558594 305.72735595703125 349.168212890625 310.19744873046875 346.7548522949219 314.51922607421875 C 344.3296203613281 318.8229064941406 341.92791748046875 323.162109375 339.5172424316406 327.48712158203125 C 339.5063781738281 333.75 339.50384521484375 340.10870361328125 339.3254089355469 346.4674072265625 C 339.324462890625 352.8260498046875 339.3338623046875 359.184814453125 339.3268127441406 365.54345703125 C 339.4132080078125 371.90216064453125 339.5129089355469 378.2608642578125 339.5163879394531 384.61956787109375 C 339.32427978515625 390.978271484375 339.3274230957031 397.33697509765625 339.51104736328125 403.6956787109375 C 339.3310241699219 410.0543212890625 339.3410339355469 416.4130859375 339.3891296386719 422.771728515625 C 339.5096435546875 429.13043212890625 339.3249206542969 435.4891357421875 339.51708984375 441.84783935546875 C 339.3246765136719 448.20654296875 339.3221435546875 454.565185546875 339.51025390625 460.9239501953125 C 339.3241271972656 467.2825927734375 339.3236083984375 473.64129638671875 339.3240661621094 480.097412109375 C 333.3482666015625 480.0972595214844 327.2777099609375 480.0924072265625 321.20703125 480.09918212890625 C 315.1363525390625 480.0971374511719 309.0657958984375 479.90936279296875 302.9952392578125 479.9012451171875 C 296.924560546875 480.0957336425781 290.85400390625 480.08905029296875 284.7833251953125 479.93878173828125 C 278.712646484375 480.094482421875 272.6422119140625 480.091064453125 266.4747314453125 479.9017028808594"/>
  </g>
</svg>
