<?xml version="1.0" ?>
<svg xmlns="http://www.w3.org/2000/svg" version="1.1" width="600" height="600">
  <defs/>
  <g>
    <path stroke-width="0" fill="rgb(0, 0, 0)" opacity="1.0" d="M 266.571533203125 480.0 C 266.571533203125 473.8043212890625 266.571533203125 467.60870361328125 266.571533203125 461.4130859375 C 266.571533203125 455.2174072265625 266.571533203125 449.021728515625 266.571533203125 442.8260498046875 C 266.571533203125 436.63043212890625 266.571533203125 430.434814453125 266.571533203125 424.2391357421875 C 266.571533203125 418.04345703125 266.571533203125 411.84783935546875 266.571533203125 405.65216064453125 C 266.571533203125 399.45654296875 266.571533203125 393.2608642578125 266.571533203125 387.065185546875 C 266.571533203125 380.86956787109375 266.571533203125 374.6739501953125 266.571533203125 368.478271484375 C 266.571533203125 362.2825927734375 266.571533203125 356.08697509765625 266.571533203125 349.89129638671875 C 266.571533203125 343.6956787109375 266.571533203125 337.5 266.571533203125 331.3043518066406 C 264.06591796875 326.90216064453125 261.5601806640625 322.5 259.0545654296875 318.09783935546875 C 256.5489501953125 313.6956481933594 254.043212890625 309.29345703125 251.53759765625 304.89129638671875 C 249.031982421875 300.4891357421875 246.5262451171875 296.08697509765625 244.0206298828125 291.6847839355469 C 241.5150146484375 287.2825927734375 239.00927734375 282.88043212890625 236.503662109375 278.478271484375 C 233.998046875 274.0760803222656 231.4923095703125 269.67388916015625 228.9866943359375 265.271728515625 C 226.4810791015625 260.86956787109375 223.975341796875 256.4674072265625 221.4697265625 252.06521606445312 C 218.964111328125 247.66302490234375 216.4583740234375 243.2608642578125 213.9527587890625 238.85870361328125 C 211.4471435546875 234.45654296875 208.94140625 230.05435180664062 206.435791015625 225.65216064453125 C 203.93017578125 221.25 201.4244384765625 216.84783935546875 198.9188232421875 212.44564819335938 C 196.4132080078125 208.04348754882812 193.907470703125 203.64129638671875 191.40185546875 199.2391357421875 C 188.896240234375 194.83694458007812 186.3905029296875 190.43478393554688 183.8848876953125 186.0325927734375 C 181.3792724609375 181.63043212890625 178.87353515625 177.228271484375 176.367919921875 172.82608032226562 C 173.8623046875 168.42391967773438 171.3565673828125 164.021728515625 168.8509521484375 159.61956787109375 C 166.3453369140625 155.21737670898438 163.839599609375 150.81521606445312 161.333984375 146.41305541992188 C 158.828369140625 142.0108642578125 156.3226318359375 137.60870361328125 153.8170166015625 133.20651245117188 C 151.3114013671875 128.80435180664062 148.8056640625 124.40216064453125 146.300048828125 120.0 C 152.9410400390625 120.0 159.5821533203125 120.0 166.2230224609375 120.0 C 172.864013671875 120.0 179.505126953125 120.0 186.1461181640625 120.0 C 192.787109375 120.0 199.4281005859375 120.0 206.069091796875 120.0 C 212.7100830078125 120.0 219.3511962890625 120.0 225.9921875 120.0 C 227.632080078125 123.02139282226562 229.2718505859375 126.04281616210938 230.9117431640625 129.064208984375 C 232.5516357421875 132.0855712890625 234.1915283203125 135.10699462890625 235.8314208984375 138.12838745117188 C 239.111083984375 144.17120361328125 242.3909912109375 150.2139892578125 245.670654296875 156.25680541992188 C 247.310546875 159.27816772460938 248.950439453125 162.29959106445312 250.59033203125 165.32098388671875 C 252.230224609375 168.34237670898438 253.8699951171875 171.36380004882812 255.510009765625 174.38519287109375 C 257.14990234375 177.40658569335938 258.7896728515625 180.42800903320312 260.4295654296875 183.44940185546875 C 262.069580078125 186.47076416015625 263.7093505859375 189.4921875 265.3492431640625 192.51358032226562 C 266.9891357421875 195.53497314453125 268.6290283203125 198.556396484375 270.2689208984375 201.57778930664062 C 271.9088134765625 204.59918212890625 273.548583984375 207.62060546875 275.1884765625 210.6419677734375 C 278.46826171875 216.68478393554688 281.748046875 222.72756958007812 285.02783203125 228.7703857421875 C 288.3074951171875 234.81317138671875 291.58740234375 240.85598754882812 294.8670654296875 246.89877319335938 C 298.1468505859375 252.94158935546875 301.4266357421875 258.984375 304.7064208984375 265.02716064453125 C 307.8944091796875 258.984375 311.0826416015625 252.94158935546875 314.2706298828125 246.89877319335938 C 317.458740234375 240.85598754882812 320.6468505859375 234.81317138671875 323.8349609375 228.7703857421875 C 327.02294921875 222.72756958007812 330.211181640625 216.68478393554688 333.399169921875 210.6419677734375 C 336.5872802734375 204.59918212890625 339.775390625 198.556396484375 342.9635009765625 192.51358032226562 C 346.1514892578125 186.47076416015625 349.3397216796875 180.42800903320312 352.5277099609375 174.38519287109375 C 355.7158203125 168.34237670898438 358.9039306640625 162.29959106445312 362.092041015625 156.25680541992188 C 365.280029296875 150.2139892578125 368.46826171875 144.17120361328125 371.65625 138.12838745117188 C 374.8443603515625 132.0855712890625 378.032470703125 126.04281616210938 381.2205810546875 120.0 C 387.3929443359375 120.0 393.5654296875 120.0 399.7379150390625 120.0 C 405.910400390625 120.0 412.0828857421875 120.0 418.25537109375 120.0 C 424.4278564453125 120.0 430.6002197265625 120.0 436.772705078125 120.0 C 442.9451904296875 120.0 449.11767578125 120.0 455.2901611328125 120.0 C 452.8760986328125 124.32064819335938 450.462158203125 128.64132690429688 448.0482177734375 132.96194458007812 C 445.6341552734375 137.2825927734375 443.22021484375 141.603271484375 440.8062744140625 145.92391967773438 C 438.3922119140625 150.24456787109375 435.978271484375 154.56521606445312 433.5643310546875 158.8858642578125 C 431.1502685546875 163.20651245117188 428.736328125 167.52719116210938 426.322265625 171.84783935546875 C 423.9083251953125 176.16845703125 421.494384765625 180.4891357421875 419.080322265625 184.80978393554688 C 416.6663818359375 189.13043212890625 414.25244140625 193.45108032226562 411.83837890625 197.771728515625 C 409.4244384765625 202.09237670898438 407.010498046875 206.41305541992188 404.596435546875 210.73370361328125 C 402.1824951171875 215.0543212890625 399.7684326171875 219.375 397.3544921875 223.69564819335938 C 394.9405517578125 228.01629638671875 392.5264892578125 232.33694458007812 390.112548828125 236.6575927734375 C 387.6986083984375 240.978271484375 385.2845458984375 245.29888916015625 382.87060546875 249.61956787109375 C 380.4566650390625 253.94021606445312 378.0426025390625 258.2608642578125 375.628662109375 262.58154296875 C 373.214599609375 266.90216064453125 370.8006591796875 271.22283935546875 368.38671875 275.54345703125 C 365.97265625 279.8641357421875 363.5587158203125 284.1847839355469 361.144775390625 288.50543212890625 C 358.730712890625 292.82611083984375 356.3167724609375 297.146728515625 353.90283203125 301.4674072265625 C 351.48876953125 305.78802490234375 349.0748291015625 310.10870361328125 346.6607666015625 314.4293518066406 C 344.246826171875 318.75 341.8328857421875 323.0706481933594 339.4188232421875 327.39129638671875 C 339.4188232421875 333.75 339.4188232421875 340.10870361328125 339.4188232421875 346.4674072265625 C 339.4188232421875 352.8260498046875 339.4188232421875 359.184814453125 339.4188232421875 365.54345703125 C 339.4188232421875 371.90216064453125 339.4188232421875 378.2608642578125 339.4188232421875 384.61956787109375 C 339.4188232421875 390.978271484375 339.4188232421875 397.33697509765625 339.4188232421875 403.6956787109375 C 339.4188232421875 410.0543212890625 339.4188232421875 416.4130859375 339.4188232421875 422.771728515625 C 339.4188232421875 429.13043212890625 339.4188232421875 435.4891357421875 339.4188232421875 441.84783935546875 C 339.4188232421875 448.20654296875 339.4188232421875 454.565185546875 339.4188232421875 460.9239501953125 C 339.4188232421875 467.2825927734375 339.4188232421875 473.64129638671875 339.4188232421875 480.0 C 333.3482666015625 480.0 327.2777099609375 480.0 321.20703125 480.0 C 315.1363525390625 480.0 309.0657958984375 480.0 302.9952392578125 480.0 C 296.924560546875 480.0 290.85400390625 480.0 284.7833251953125 480.0 C 278.712646484375 480.0 272.6422119140625 480.0 266.571533203125 480.0"/>
  </g>
</svg>
