<?xml version="1.0" ?>
<svg xmlns="http://www.w3.org/2000/svg" version="1.1" width="600" height="600">
  <defs/>
  <g>
    <path stroke-width="0" fill="rgb(0, 0, 0)" opacity="1.0" d="M 301.37548828125 480.0 C 289.58056640625 480.0 278.5228271484375 479.2828369140625 268.20233154296875 477.8486328125 C 257.88177490234375 476.414306640625 248.29840087890625 474.262939453125 239.45220947265625 471.39434814453125 C 221.7598876953125 465.6572265625 207.0162353515625 457.0516357421875 195.2213134765625 445.57745361328125 C 183.4263916015625 434.103271484375 174.5802001953125 419.760498046875 168.6827392578125 402.54925537109375 C 165.7340087890625 393.943603515625 163.5224609375 384.620849609375 162.048095703125 374.5809326171875 C 160.57373046875 364.541015625 159.8365478515625 353.783935546875 159.8365478515625 342.309814453125 C 159.8365478515625 323.7839660644531 159.8365478515625 305.2581481933594 159.8365478515625 286.7323303222656 C 159.8365478515625 268.20654296875 159.8365478515625 249.68072509765625 159.8365478515625 231.1549072265625 C 159.8365478515625 212.62908935546875 159.8365478515625 194.103271484375 159.8365478515625 175.57745361328125 C 159.8365478515625 157.0516357421875 159.8365478515625 138.52581787109375 159.8365478515625 120.0 C 171.977783203125 120.0 184.1190185546875 120.0 196.26025390625 120.0 C 208.40142822265625 120.0 220.54266357421875 120.0 232.68389892578125 120.0 C 232.68389892578125 138.66848754882812 232.68389892578125 157.33694458007812 232.68389892578125 176.00543212890625 C 232.68389892578125 194.67391967773438 232.68389892578125 213.34237670898438 232.68389892578125 232.0108642578125 C 232.68389892578125 250.6793212890625 232.68389892578125 269.34783935546875 232.68389892578125 288.01629638671875 C 232.68389892578125 306.6847839355469 232.68389892578125 325.353271484375 232.68389892578125 344.021728515625 C 232.68389892578125 356.25 234.09967041015625 366.94970703125 236.9312744140625 376.12091064453125 C 239.76287841796875 385.2921142578125 244.01025390625 392.934814453125 249.6734619140625 399.0489501953125 C 260.9998779296875 411.27716064453125 277.9893798828125 417.39129638671875 300.64215087890625 417.39129638671875 C 323.294921875 417.39129638671875 340.28448486328125 411.27716064453125 351.61083984375 399.0489501953125 C 357.2740478515625 392.934814453125 361.52142333984375 385.2921142578125 364.35302734375 376.12091064453125 C 367.1845703125 366.94970703125 368.60040283203125 356.25 368.60040283203125 344.021728515625 C 368.60040283203125 325.353271484375 368.60040283203125 306.6847839355469 368.60040283203125 288.01629638671875 C 368.60040283203125 269.34783935546875 368.60040283203125 250.6793212890625 368.60040283203125 232.0108642578125 C 368.60040283203125 213.34237670898438 368.60040283203125 194.67391967773438 368.60040283203125 176.00543212890625 C 368.60040283203125 157.33694458007812 368.60040283203125 138.66848754882812 368.60040283203125 120.0 C 380.74163818359375 120.0 392.8828125 120.0 405.02410888671875 120.0 C 417.16534423828125 120.0 429.3065185546875 120.0 441.44775390625 120.0 C 441.44775390625 138.52581787109375 441.44775390625 157.0516357421875 441.44775390625 175.57745361328125 C 441.44775390625 194.103271484375 441.44775390625 212.62908935546875 441.44775390625 231.1549072265625 C 441.44775390625 249.68072509765625 441.44775390625 268.20654296875 441.44775390625 286.7323303222656 C 441.44775390625 305.2581481933594 441.44775390625 323.7839660644531 441.44775390625 342.309814453125 C 441.44775390625 352.9483642578125 440.74493408203125 363.0264892578125 439.33935546875 372.544189453125 C 437.9337158203125 382.06182861328125 435.8253173828125 391.01904296875 433.01409912109375 399.415771484375 C 427.39166259765625 416.209228515625 418.95794677734375 430.7608642578125 407.71307373046875 443.0706787109375 C 396.5496826171875 455.38043212890625 382.10650634765625 464.61279296875 364.38360595703125 470.7677001953125 C 355.5220947265625 473.8450927734375 345.8406982421875 476.1531982421875 335.33935546875 477.69189453125 C 324.8380126953125 479.23065185546875 313.51678466796875 480.0 301.37548828125 480.0"/>
  </g>
</svg>
