<?xml version="1.0" encoding="utf-8"?>
<svg xmlns="http://www.w3.org/2000/svg" xmlns:ev="http://www.w3.org/2001/xml-events" xmlns:xlink="http://www.w3.org/1999/xlink" version="1.1" baseProfile="full" width="6852.0" height="1472.0" viewBox="128.0 -1472.0 6852.0 1472.0">
<defs/>
<g><path d="M 128.000000 0.000000 C 128.000000 -61.333333 128.000000 -122.666667 128.000000 -184.000000 C 128.000000 -245.333333 128.000000 -306.666667 128.000000 -368.000000 C 128.000000 -429.333333 128.000000 -490.666667 128.000000 -552.000000 C 128.000000 -613.333333 128.000000 -674.666667 128.000000 -736.000000 C 128.000000 -797.333333 128.000000 -858.666667 128.000000 -920.000000 C 128.000000 -981.333333 128.000000 -1042.666667 128.000000 -1104.000000 C 128.000000 -1165.333333 128.000000 -1226.666667 128.000000 -1288.000000 C 128.000000 -1349.333333 128.000000 -1410.666667 128.000000 -1472.000000 C 180.833333 -1472.000000 233.666667 -1472.000000 286.500000 -1472.000000 C 339.333333 -1472.000000 392.166667 -1472.000000 445.000000 -1472.000000 C 497.833333 -1472.000000 550.666667 -1472.000000 603.500000 -1472.000000 C 656.333333 -1472.000000 709.166667 -1472.000000 762.000000 -1472.000000 C 834.000000 -1472.000000 897.916667 -1463.583333 953.750000 -1446.750000 C 1009.583333 -1429.916667 1057.333333 -1404.666667 1097.000000 -1371.000000 C 1176.333333 -1304.333333 1216.000000 -1217.000000 1216.000000 -1109.000000 C 1216.000000 -1027.000000 1196.500000 -958.500000 1157.500000 -903.500000 C 1118.500000 -848.500000 1060.000000 -807.000000 982.000000 -779.000000 C 982.000000 -777.333333 982.000000 -775.666667 982.000000 -774.000000 C 1068.000000 -756.666667 1139.000000 -719.333333 1195.000000 -662.000000 C 1251.666667 -605.333333 1280.000000 -530.666667 1280.000000 -438.000000 C 1280.000000 -370.666667 1268.416667 -310.333333 1245.250000 -257.000000 C 1222.083333 -203.666667 1187.333333 -157.333333 1141.000000 -118.000000 C 1094.666667 -78.666667 1039.500000 -49.166667 975.500000 -29.500000 C 911.500000 -9.833333 838.666667 0.000000 757.000000 0.000000 C 652.166667 0.000000 547.333333 0.000000 442.500000 0.000000 C 337.666667 0.000000 232.833333 0.000000 128.000000 0.000000z M 426.000000 -1243.000000 C 426.000000 -1180.666667 426.000000 -1118.333333 426.000000 -1056.000000 C 426.000000 -993.666667 426.000000 -931.333333 426.000000 -869.000000 C 516.666667 -869.000000 607.333333 -869.000000 698.000000 -869.000000 C 771.333333 -869.000000 826.333333 -884.666667 863.000000 -916.000000 C 899.666667 -947.333333 918.000000 -994.333333 918.000000 -1057.000000 C 918.000000 -1119.666667 900.000000 -1166.333333 864.000000 -1197.000000 C 828.000000 -1227.666667 771.000000 -1243.000000 693.000000 -1243.000000 C 604.000000 -1243.000000 515.000000 -1243.000000 426.000000 -1243.000000z M 426.000000 -229.000000 C 527.333333 -229.000000 628.666667 -229.000000 730.000000 -229.000000 C 814.000000 -229.000000 877.000000 -246.333333 919.000000 -281.000000 C 961.000000 -315.666667 982.000000 -367.666667 982.000000 -437.000000 C 982.000000 -504.333333 960.000000 -555.000000 916.000000 -589.000000 C 872.000000 -623.000000 812.666667 -640.000000 738.000000 -640.000000 C 634.000000 -640.000000 530.000000 -640.000000 426.000000 -640.000000 C 426.000000 -571.500000 426.000000 -503.000000 426.000000 -434.500000 C 426.000000 -366.000000 426.000000 -297.500000 426.000000 -229.000000z "/>
</g>
<g><path d="M 2051.000000 0.000000 C 2002.750000 0.000000 1957.515625 -2.932292 1915.296875 -8.796875 C 1873.078125 -14.661458 1833.875000 -23.458333 1797.687500 -35.187500 C 1725.312500 -58.645833 1665.000000 -93.833333 1616.750000 -140.750000 C 1568.500000 -187.666667 1532.312500 -246.312500 1508.187500 -316.687500 C 1496.125000 -351.875000 1487.078125 -389.994792 1481.046875 -431.046875 C 1475.015625 -472.098958 1472.000000 -516.083333 1472.000000 -563.000000 C 1472.000000 -638.750000 1472.000000 -714.500000 1472.000000 -790.250000 C 1472.000000 -866.000000 1472.000000 -941.750000 1472.000000 -1017.500000 C 1472.000000 -1093.250000 1472.000000 -1169.000000 1472.000000 -1244.750000 C 1472.000000 -1320.500000 1472.000000 -1396.250000 1472.000000 -1472.000000 C 1521.666667 -1472.000000 1571.333333 -1472.000000 1621.000000 -1472.000000 C 1670.666667 -1472.000000 1720.333333 -1472.000000 1770.000000 -1472.000000 C 1770.000000 -1395.666667 1770.000000 -1319.333333 1770.000000 -1243.000000 C 1770.000000 -1166.666667 1770.000000 -1090.333333 1770.000000 -1014.000000 C 1770.000000 -937.666667 1770.000000 -861.333333 1770.000000 -785.000000 C 1770.000000 -708.666667 1770.000000 -632.333333 1770.000000 -556.000000 C 1770.000000 -506.000000 1775.791667 -462.250000 1787.375000 -424.750000 C 1798.958333 -387.250000 1816.333333 -356.000000 1839.500000 -331.000000 C 1885.833333 -281.000000 1955.333333 -256.000000 2048.000000 -256.000000 C 2140.666667 -256.000000 2210.166667 -281.000000 2256.500000 -331.000000 C 2279.666667 -356.000000 2297.041667 -387.250000 2308.625000 -424.750000 C 2320.208333 -462.250000 2326.000000 -506.000000 2326.000000 -556.000000 C 2326.000000 -632.333333 2326.000000 -708.666667 2326.000000 -785.000000 C 2326.000000 -861.333333 2326.000000 -937.666667 2326.000000 -1014.000000 C 2326.000000 -1090.333333 2326.000000 -1166.666667 2326.000000 -1243.000000 C 2326.000000 -1319.333333 2326.000000 -1395.666667 2326.000000 -1472.000000 C 2375.666667 -1472.000000 2425.333333 -1472.000000 2475.000000 -1472.000000 C 2524.666667 -1472.000000 2574.333333 -1472.000000 2624.000000 -1472.000000 C 2624.000000 -1396.250000 2624.000000 -1320.500000 2624.000000 -1244.750000 C 2624.000000 -1169.000000 2624.000000 -1093.250000 2624.000000 -1017.500000 C 2624.000000 -941.750000 2624.000000 -866.000000 2624.000000 -790.250000 C 2624.000000 -714.500000 2624.000000 -638.750000 2624.000000 -563.000000 C 2624.000000 -519.500000 2621.125000 -478.291667 2615.375000 -439.375000 C 2609.625000 -400.458333 2601.000000 -363.833333 2589.500000 -329.500000 C 2566.500000 -260.833333 2532.000000 -201.333333 2486.000000 -151.000000 C 2440.333333 -100.666667 2381.250000 -62.916667 2308.750000 -37.750000 C 2272.500000 -25.166667 2232.895833 -15.729167 2189.937500 -9.437500 C 2146.979167 -3.145833 2100.666667 0.000000 2051.000000 0.000000z "/>
</g>
<g><path d="M 2880.000000 0.000000 C 2880.000000 -61.333333 2880.000000 -122.666667 2880.000000 -184.000000 C 2880.000000 -245.333333 2880.000000 -306.666667 2880.000000 -368.000000 C 2880.000000 -429.333333 2880.000000 -490.666667 2880.000000 -552.000000 C 2880.000000 -613.333333 2880.000000 -674.666667 2880.000000 -736.000000 C 2880.000000 -797.333333 2880.000000 -858.666667 2880.000000 -920.000000 C 2880.000000 -981.333333 2880.000000 -1042.666667 2880.000000 -1104.000000 C 2880.000000 -1165.333333 2880.000000 -1226.666667 2880.000000 -1288.000000 C 2880.000000 -1349.333333 2880.000000 -1410.666667 2880.000000 -1472.000000 C 2937.833333 -1472.000000 2995.666667 -1472.000000 3053.500000 -1472.000000 C 3111.333333 -1472.000000 3169.166667 -1472.000000 3227.000000 -1472.000000 C 3268.666667 -1401.333333 3310.333333 -1330.666667 3352.000000 -1260.000000 C 3393.666667 -1189.333333 3435.333333 -1118.666667 3477.000000 -1048.000000 C 3518.666667 -977.333333 3560.333333 -906.666667 3602.000000 -836.000000 C 3643.666667 -765.333333 3685.333333 -694.666667 3727.000000 -624.000000 C 3739.000000 -602.666667 3751.000000 -579.000000 3763.000000 -553.000000 C 3775.000000 -527.666667 3784.000000 -507.333333 3790.000000 -492.000000 C 3792.666667 -484.666667 3795.333333 -477.333333 3798.000000 -470.000000 C 3798.000000 -470.000000 3798.000000 -470.000000 3798.000000 -470.000000 C 3798.000000 -553.500000 3798.000000 -637.000000 3798.000000 -720.500000 C 3798.000000 -804.000000 3798.000000 -887.500000 3798.000000 -971.000000 C 3798.000000 -1054.500000 3798.000000 -1138.000000 3798.000000 -1221.500000 C 3798.000000 -1305.000000 3798.000000 -1388.500000 3798.000000 -1472.000000 C 3847.666667 -1472.000000 3897.333333 -1472.000000 3947.000000 -1472.000000 C 3996.666667 -1472.000000 4046.333333 -1472.000000 4096.000000 -1472.000000 C 4096.000000 -1410.666667 4096.000000 -1349.333333 4096.000000 -1288.000000 C 4096.000000 -1226.666667 4096.000000 -1165.333333 4096.000000 -1104.000000 C 4096.000000 -1042.666667 4096.000000 -981.333333 4096.000000 -920.000000 C 4096.000000 -858.666667 4096.000000 -797.333333 4096.000000 -736.000000 C 4096.000000 -674.666667 4096.000000 -613.333333 4096.000000 -552.000000 C 4096.000000 -490.666667 4096.000000 -429.333333 4096.000000 -368.000000 C 4096.000000 -306.666667 4096.000000 -245.333333 4096.000000 -184.000000 C 4096.000000 -122.666667 4096.000000 -61.333333 4096.000000 0.000000 C 4040.500000 0.000000 3985.000000 0.000000 3929.500000 0.000000 C 3874.000000 0.000000 3818.500000 0.000000 3763.000000 0.000000 C 3720.333333 -71.833333 3677.666667 -143.666667 3635.000000 -215.500000 C 3592.333333 -287.333333 3549.666667 -359.166667 3507.000000 -431.000000 C 3464.333333 -502.833333 3421.666667 -574.666667 3379.000000 -646.500000 C 3336.333333 -718.333333 3293.666667 -790.166667 3251.000000 -862.000000 C 3237.666667 -885.333333 3225.000000 -910.000000 3213.000000 -936.000000 C 3201.666667 -962.000000 3192.666667 -982.000000 3186.000000 -996.000000 C 3183.333333 -1003.333333 3180.666667 -1010.666667 3178.000000 -1018.000000 C 3178.000000 -1018.000000 3178.000000 -1018.000000 3178.000000 -1018.000000 C 3178.000000 -975.583333 3178.000000 -933.166667 3178.000000 -890.750000 C 3178.000000 -848.333333 3178.000000 -805.916667 3178.000000 -763.500000 C 3178.000000 -678.666667 3178.000000 -593.833333 3178.000000 -509.000000 C 3178.000000 -466.583333 3178.000000 -424.166667 3178.000000 -381.750000 C 3178.000000 -339.333333 3178.000000 -296.916667 3178.000000 -254.500000 C 3178.000000 -169.666667 3178.000000 -84.833333 3178.000000 0.000000 C 3128.333333 0.000000 3078.666667 0.000000 3029.000000 0.000000 C 2979.333333 0.000000 2929.666667 0.000000 2880.000000 0.000000z "/>
</g>
<g><path d="M 4352.000000 0.000000 C 4352.000000 -61.333333 4352.000000 -122.666667 4352.000000 -184.000000 C 4352.000000 -245.333333 4352.000000 -306.666667 4352.000000 -368.000000 C 4352.000000 -429.333333 4352.000000 -490.666667 4352.000000 -552.000000 C 4352.000000 -613.333333 4352.000000 -674.666667 4352.000000 -736.000000 C 4352.000000 -797.333333 4352.000000 -858.666667 4352.000000 -920.000000 C 4352.000000 -981.333333 4352.000000 -1042.666667 4352.000000 -1104.000000 C 4352.000000 -1165.333333 4352.000000 -1226.666667 4352.000000 -1288.000000 C 4352.000000 -1349.333333 4352.000000 -1410.666667 4352.000000 -1472.000000 C 4409.833333 -1472.000000 4467.666667 -1472.000000 4525.500000 -1472.000000 C 4583.333333 -1472.000000 4641.166667 -1472.000000 4699.000000 -1472.000000 C 4740.666667 -1401.333333 4782.333333 -1330.666667 4824.000000 -1260.000000 C 4865.666667 -1189.333333 4907.333333 -1118.666667 4949.000000 -1048.000000 C 4990.666667 -977.333333 5032.333333 -906.666667 5074.000000 -836.000000 C 5115.666667 -765.333333 5157.333333 -694.666667 5199.000000 -624.000000 C 5211.000000 -602.666667 5223.000000 -579.000000 5235.000000 -553.000000 C 5247.000000 -527.666667 5256.000000 -507.333333 5262.000000 -492.000000 C 5264.666667 -484.666667 5267.333333 -477.333333 5270.000000 -470.000000 C 5270.000000 -470.000000 5270.000000 -470.000000 5270.000000 -470.000000 C 5270.000000 -553.500000 5270.000000 -637.000000 5270.000000 -720.500000 C 5270.000000 -804.000000 5270.000000 -887.500000 5270.000000 -971.000000 C 5270.000000 -1054.500000 5270.000000 -1138.000000 5270.000000 -1221.500000 C 5270.000000 -1305.000000 5270.000000 -1388.500000 5270.000000 -1472.000000 C 5319.666667 -1472.000000 5369.333333 -1472.000000 5419.000000 -1472.000000 C 5468.666667 -1472.000000 5518.333333 -1472.000000 5568.000000 -1472.000000 C 5568.000000 -1410.666667 5568.000000 -1349.333333 5568.000000 -1288.000000 C 5568.000000 -1226.666667 5568.000000 -1165.333333 5568.000000 -1104.000000 C 5568.000000 -1042.666667 5568.000000 -981.333333 5568.000000 -920.000000 C 5568.000000 -858.666667 5568.000000 -797.333333 5568.000000 -736.000000 C 5568.000000 -674.666667 5568.000000 -613.333333 5568.000000 -552.000000 C 5568.000000 -490.666667 5568.000000 -429.333333 5568.000000 -368.000000 C 5568.000000 -306.666667 5568.000000 -245.333333 5568.000000 -184.000000 C 5568.000000 -122.666667 5568.000000 -61.333333 5568.000000 0.000000 C 5512.500000 0.000000 5457.000000 0.000000 5401.500000 0.000000 C 5346.000000 0.000000 5290.500000 0.000000 5235.000000 0.000000 C 5192.333333 -71.833333 5149.666667 -143.666667 5107.000000 -215.500000 C 5064.333333 -287.333333 5021.666667 -359.166667 4979.000000 -431.000000 C 4936.333333 -502.833333 4893.666667 -574.666667 4851.000000 -646.500000 C 4808.333333 -718.333333 4765.666667 -790.166667 4723.000000 -862.000000 C 4709.666667 -885.333333 4697.000000 -910.000000 4685.000000 -936.000000 C 4673.666667 -962.000000 4664.666667 -982.000000 4658.000000 -996.000000 C 4655.333333 -1003.333333 4652.666667 -1010.666667 4650.000000 -1018.000000 C 4650.000000 -1018.000000 4650.000000 -1018.000000 4650.000000 -1018.000000 C 4650.000000 -975.583333 4650.000000 -933.166667 4650.000000 -890.750000 C 4650.000000 -848.333333 4650.000000 -805.916667 4650.000000 -763.500000 C 4650.000000 -678.666667 4650.000000 -593.833333 4650.000000 -509.000000 C 4650.000000 -466.583333 4650.000000 -424.166667 4650.000000 -381.750000 C 4650.000000 -339.333333 4650.000000 -296.916667 4650.000000 -254.500000 C 4650.000000 -169.666667 4650.000000 -84.833333 4650.000000 0.000000 C 4600.333333 0.000000 4550.666667 0.000000 4501.000000 0.000000 C 4451.333333 0.000000 4401.666667 0.000000 4352.000000 0.000000z "/>
</g>
<g><path d="M 6208.000000 0.000000 C 6208.000000 -25.333333 6208.000000 -50.666667 6208.000000 -76.000000 C 6208.000000 -101.333333 6208.000000 -126.666667 6208.000000 -152.000000 C 6208.000000 -177.333333 6208.000000 -202.666667 6208.000000 -228.000000 C 6208.000000 -253.333333 6208.000000 -278.666667 6208.000000 -304.000000 C 6208.000000 -329.333333 6208.000000 -354.666667 6208.000000 -380.000000 C 6208.000000 -405.333333 6208.000000 -430.666667 6208.000000 -456.000000 C 6208.000000 -481.333333 6208.000000 -506.666667 6208.000000 -532.000000 C 6208.000000 -557.333333 6208.000000 -582.666667 6208.000000 -608.000000 C 6197.750000 -626.000000 6187.500000 -644.000000 6177.250000 -662.000000 C 6167.000000 -680.000000 6156.750000 -698.000000 6146.500000 -716.000000 C 6136.250000 -734.000000 6126.000000 -752.000000 6115.750000 -770.000000 C 6105.500000 -788.000000 6095.250000 -806.000000 6085.000000 -824.000000 C 6074.750000 -842.000000 6064.500000 -860.000000 6054.250000 -878.000000 C 6044.000000 -896.000000 6033.750000 -914.000000 6023.500000 -932.000000 C 6013.250000 -950.000000 6003.000000 -968.000000 5992.750000 -986.000000 C 5982.500000 -1004.000000 5972.250000 -1022.000000 5962.000000 -1040.000000 C 5951.750000 -1058.000000 5941.500000 -1076.000000 5931.250000 -1094.000000 C 5921.000000 -1112.000000 5910.750000 -1130.000000 5900.500000 -1148.000000 C 5890.250000 -1166.000000 5880.000000 -1184.000000 5869.750000 -1202.000000 C 5859.500000 -1220.000000 5849.250000 -1238.000000 5839.000000 -1256.000000 C 5828.750000 -1274.000000 5818.500000 -1292.000000 5808.250000 -1310.000000 C 5798.000000 -1328.000000 5787.750000 -1346.000000 5777.500000 -1364.000000 C 5767.250000 -1382.000000 5757.000000 -1400.000000 5746.750000 -1418.000000 C 5736.500000 -1436.000000 5726.250000 -1454.000000 5716.000000 -1472.000000 C 5743.166667 -1472.000000 5770.333333 -1472.000000 5797.500000 -1472.000000 C 5824.666667 -1472.000000 5851.833333 -1472.000000 5879.000000 -1472.000000 C 5906.166667 -1472.000000 5933.333333 -1472.000000 5960.500000 -1472.000000 C 5987.666667 -1472.000000 6014.833333 -1472.000000 6042.000000 -1472.000000 C 6048.708333 -1459.645833 6055.416667 -1447.291667 6062.125000 -1434.937500 C 6068.833333 -1422.583333 6075.541667 -1410.229167 6082.250000 -1397.875000 C 6095.666667 -1373.166667 6109.083333 -1348.458333 6122.500000 -1323.750000 C 6129.208333 -1311.395833 6135.916667 -1299.041667 6142.625000 -1286.687500 C 6149.333333 -1274.333333 6156.041667 -1261.979167 6162.750000 -1249.625000 C 6169.458333 -1237.270833 6176.166667 -1224.916667 6182.875000 -1212.562500 C 6189.583333 -1200.208333 6196.291667 -1187.854167 6203.000000 -1175.500000 C 6209.708333 -1163.145833 6216.416667 -1150.791667 6223.125000 -1138.437500 C 6229.833333 -1126.083333 6236.541667 -1113.729167 6243.250000 -1101.375000 C 6256.666667 -1076.666667 6270.083333 -1051.958333 6283.500000 -1027.250000 C 6296.916667 -1002.541667 6310.333333 -977.833333 6323.750000 -953.125000 C 6337.166667 -928.416667 6350.583333 -903.708333 6364.000000 -879.000000 C 6377.041667 -903.708333 6390.083333 -928.416667 6403.125000 -953.125000 C 6416.166667 -977.833333 6429.208333 -1002.541667 6442.250000 -1027.250000 C 6455.291667 -1051.958333 6468.333333 -1076.666667 6481.375000 -1101.375000 C 6494.416667 -1126.083333 6507.458333 -1150.791667 6520.500000 -1175.500000 C 6533.541667 -1200.208333 6546.583333 -1224.916667 6559.625000 -1249.625000 C 6572.666667 -1274.333333 6585.708333 -1299.041667 6598.750000 -1323.750000 C 6611.791667 -1348.458333 6624.833333 -1373.166667 6637.875000 -1397.875000 C 6650.916667 -1422.583333 6663.958333 -1447.291667 6677.000000 -1472.000000 C 6702.250000 -1472.000000 6727.500000 -1472.000000 6752.750000 -1472.000000 C 6778.000000 -1472.000000 6803.250000 -1472.000000 6828.500000 -1472.000000 C 6853.750000 -1472.000000 6879.000000 -1472.000000 6904.250000 -1472.000000 C 6929.500000 -1472.000000 6954.750000 -1472.000000 6980.000000 -1472.000000 C 6970.125000 -1454.333333 6960.250000 -1436.666667 6950.375000 -1419.000000 C 6940.500000 -1401.333333 6930.625000 -1383.666667 6920.750000 -1366.000000 C 6910.875000 -1348.333333 6901.000000 -1330.666667 6891.125000 -1313.000000 C 6881.250000 -1295.333333 6871.375000 -1277.666667 6861.500000 -1260.000000 C 6851.625000 -1242.333333 6841.750000 -1224.666667 6831.875000 -1207.000000 C 6822.000000 -1189.333333 6812.125000 -1171.666667 6802.250000 -1154.000000 C 6792.375000 -1136.333333 6782.500000 -1118.666667 6772.625000 -1101.000000 C 6762.750000 -1083.333333 6752.875000 -1065.666667 6743.000000 -1048.000000 C 6733.125000 -1030.333333 6723.250000 -1012.666667 6713.375000 -995.000000 C 6703.500000 -977.333333 6693.625000 -959.666667 6683.750000 -942.000000 C 6673.875000 -924.333333 6664.000000 -906.666667 6654.125000 -889.000000 C 6644.250000 -871.333333 6634.375000 -853.666667 6624.500000 -836.000000 C 6614.625000 -818.333333 6604.750000 -800.666667 6594.875000 -783.000000 C 6585.000000 -765.333333 6575.125000 -747.666667 6565.250000 -730.000000 C 6555.375000 -712.333333 6545.500000 -694.666667 6535.625000 -677.000000 C 6525.750000 -659.333333 6515.875000 -641.666667 6506.000000 -624.000000 C 6506.000000 -598.000000 6506.000000 -572.000000 6506.000000 -546.000000 C 6506.000000 -520.000000 6506.000000 -494.000000 6506.000000 -468.000000 C 6506.000000 -442.000000 6506.000000 -416.000000 6506.000000 -390.000000 C 6506.000000 -364.000000 6506.000000 -338.000000 6506.000000 -312.000000 C 6506.000000 -286.000000 6506.000000 -260.000000 6506.000000 -234.000000 C 6506.000000 -208.000000 6506.000000 -182.000000 6506.000000 -156.000000 C 6506.000000 -130.000000 6506.000000 -104.000000 6506.000000 -78.000000 C 6506.000000 -52.000000 6506.000000 -26.000000 6506.000000 0.000000 C 6481.166667 0.000000 6456.333333 0.000000 6431.500000 0.000000 C 6406.666667 0.000000 6381.833333 0.000000 6357.000000 0.000000 C 6332.166667 0.000000 6307.333333 0.000000 6282.500000 0.000000 C 6257.666667 0.000000 6232.833333 0.000000 6208.000000 0.000000z "/>
</g>
</svg>
