<?xml version="1.0" encoding="utf-8"?>
<svg xmlns="http://www.w3.org/2000/svg" xmlns:ev="http://www.w3.org/2001/xml-events" xmlns:xlink="http://www.w3.org/1999/xlink" version="1.1" baseProfile="full" width="6852.0" height="1472.0" viewBox="128.0 -1472.0 6852.0 1472.0">
<defs/>
<g><path d="M 4352.000000 0.000000 C 4352.000000 -61.333333 4352.000000 -122.666667 4352.000000 -184.000000 C 4352.000000 -245.333333 4352.000000 -306.666667 4352.000000 -368.000000 C 4352.000000 -429.333333 4352.000000 -490.666667 4352.000000 -552.000000 C 4352.000000 -613.333333 4352.000000 -674.666667 4352.000000 -736.000000 C 4352.000000 -797.333333 4352.000000 -858.666667 4352.000000 -920.000000 C 4352.000000 -981.333333 4352.000000 -1042.666667 4352.000000 -1104.000000 C 4352.000000 -1165.333333 4352.000000 -1226.666667 4352.000000 -1288.000000 C 4352.000000 -1349.333333 4352.000000 -1410.666667 4352.000000 -1472.000000 C 4409.833333 -1472.000000 4467.666667 -1472.000000 4525.500000 -1472.000000 C 4583.333333 -1472.000000 4641.166667 -1472.000000 4699.000000 -1472.000000 C 4740.666667 -1401.333333 4782.333333 -1330.666667 4824.000000 -1260.000000 C 4865.666667 -1189.333333 4907.333333 -1118.666667 4949.000000 -1048.000000 C 4990.666667 -977.333333 5032.333333 -906.666667 5074.000000 -836.000000 C 5115.666667 -765.333333 5157.333333 -694.666667 5199.000000 -624.000000 C 5211.000000 -602.666667 5223.000000 -579.000000 5235.000000 -553.000000 C 5247.000000 -527.666667 5256.000000 -507.333333 5262.000000 -492.000000 C 5264.666667 -484.666667 5267.333333 -477.333333 5270.000000 -470.000000 C 5270.000000 -470.000000 5270.000000 -470.000000 5270.000000 -470.000000 C 5270.000000 -553.500000 5270.000000 -637.000000 5270.000000 -720.500000 C 5270.000000 -804.000000 5270.000000 -887.500000 5270.000000 -971.000000 C 5270.000000 -1054.500000 5270.000000 -1138.000000 5270.000000 -1221.500000 C 5270.000000 -1305.000000 5270.000000 -1388.500000 5270.000000 -1472.000000 C 5319.666667 -1472.000000 5369.333333 -1472.000000 5419.000000 -1472.000000 C 5468.666667 -1472.000000 5518.333333 -1472.000000 5568.000000 -1472.000000 C 5568.000000 -1410.666667 5568.000000 -1349.333333 5568.000000 -1288.000000 C 5568.000000 -1226.666667 5568.000000 -1165.333333 5568.000000 -1104.000000 C 5568.000000 -1042.666667 5568.000000 -981.333333 5568.000000 -920.000000 C 5568.000000 -858.666667 5568.000000 -797.333333 5568.000000 -736.000000 C 5568.000000 -674.666667 5568.000000 -613.333333 5568.000000 -552.000000 C 5568.000000 -490.666667 5568.000000 -429.333333 5568.000000 -368.000000 C 5568.000000 -306.666667 5568.000000 -245.333333 5568.000000 -184.000000 C 5568.000000 -122.666667 5568.000000 -61.333333 5568.000000 0.000000 C 5512.500000 0.000000 5457.000000 0.000000 5401.500000 0.000000 C 5346.000000 0.000000 5290.500000 0.000000 5235.000000 0.000000 C 5192.333333 -71.833333 5149.666667 -143.666667 5107.000000 -215.500000 C 5064.333333 -287.333333 5021.666667 -359.166667 4979.000000 -431.000000 C 4936.333333 -502.833333 4893.666667 -574.666667 4851.000000 -646.500000 C 4808.333333 -718.333333 4765.666667 -790.166667 4723.000000 -862.000000 C 4709.666667 -885.333333 4697.000000 -910.000000 4685.000000 -936.000000 C 4673.666667 -962.000000 4664.666667 -982.000000 4658.000000 -996.000000 C 4655.333333 -1003.333333 4652.666667 -1010.666667 4650.000000 -1018.000000 C 4650.000000 -1018.000000 4650.000000 -1018.000000 4650.000000 -1018.000000 C 4650.000000 -975.583333 4650.000000 -933.166667 4650.000000 -890.750000 C 4650.000000 -848.333333 4650.000000 -805.916667 4650.000000 -763.500000 C 4650.000000 -678.666667 4650.000000 -593.833333 4650.000000 -509.000000 C 4650.000000 -466.583333 4650.000000 -424.166667 4650.000000 -381.750000 C 4650.000000 -339.333333 4650.000000 -296.916667 4650.000000 -254.500000 C 4650.000000 -169.666667 4650.000000 -84.833333 4650.000000 0.000000 C 4600.333333 0.000000 4550.666667 0.000000 4501.000000 0.000000 C 4451.333333 0.000000 4401.666667 0.000000 4352.000000 0.000000z "/>
</g></svg>
