<?xml version="1.0" ?>
<svg xmlns="http://www.w3.org/2000/svg" version="1.1" width="600" height="600">
  <defs/>
  <g>
    <path stroke-width="0" fill="rgb(0, 0, 0)" opacity="1.0" d="M 120.72503662109375 339.0 C 120.72503662109375 335.7916259765625 120.72503662109375 332.5833740234375 120.72503662109375 329.375 C 120.72503662109375 326.1666259765625 120.72503662109375 322.9583740234375 120.72503662109375 319.75 C 120.72503662109375 316.5416259765625 120.72503662109375 313.3333740234375 120.72503662109375 310.125 C 120.72503662109375 306.9166259765625 120.72503662109375 303.7083740234375 120.72503662109375 300.5 C 120.72503662109375 297.2916259765625 120.72503662109375 294.0833740234375 120.72503662109375 290.875 C 120.72503662109375 287.6666259765625 120.72503662109375 284.4583740234375 120.72503662109375 281.25 C 120.72503662109375 278.0416259765625 120.72503662109375 274.8333740234375 120.72503662109375 271.625 C 120.72503662109375 268.4166259765625 120.72503662109375 265.2083740234375 120.72503662109375 262.0 C 123.50088500976562 262.0 126.27670288085938 262.0 129.05255126953125 262.0 C 131.828369140625 262.0 134.60418701171875 262.0 137.38003540039062 262.0 C 140.15585327148438 262.0 142.93170166015625 262.0 145.70751953125 262.0 C 148.48336791992188 262.0 151.25918579101562 262.0 154.0350341796875 262.0 C 157.81787109375 262.0 161.17599487304688 262.4403076171875 164.10946655273438 263.32080078125 C 167.04290771484375 264.20135498046875 169.55166625976562 265.522216796875 171.6357421875 267.2833251953125 C 175.80386352539062 270.7706298828125 177.88790893554688 275.3389892578125 177.88790893554688 280.98846435546875 C 177.88790893554688 285.27783203125 176.8634033203125 288.861083984375 174.81436157226562 291.73809814453125 C 172.76531982421875 294.6151123046875 169.6917724609375 296.7860107421875 165.59368896484375 298.25067138671875 C 165.59368896484375 298.337890625 165.59368896484375 298.425048828125 165.59368896484375 298.51220703125 C 170.11209106445312 299.4189453125 173.84237670898438 301.371826171875 176.78457641601562 304.37091064453125 C 179.76181030273438 307.33514404296875 181.25042724609375 311.240966796875 181.25042724609375 316.08831787109375 C 181.25042724609375 319.6104736328125 180.641845703125 322.76654052734375 179.4246826171875 325.556396484375 C 178.20751953125 328.34625244140625 176.38177490234375 330.7698974609375 173.94744873046875 332.82745361328125 C 171.51312255859375 334.88494873046875 168.61471557617188 336.4281005859375 165.252197265625 337.45684814453125 C 161.88967895507812 338.485595703125 158.06304931640625 339.0 153.7723388671875 339.0 C 148.26446533203125 339.0 142.75656127929688 339.0 137.24868774414062 339.0 C 131.74081420898438 339.0 126.23291015625 339.0 120.72503662109375 339.0M 136.38177490234375 273.97894287109375 C 136.38177490234375 277.2396240234375 136.38177490234375 280.500244140625 136.38177490234375 283.7608642578125 C 136.38177490234375 287.021484375 136.38177490234375 290.28216552734375 136.38177490234375 293.54278564453125 C 141.14535522460938 293.54278564453125 145.908935546875 293.54278564453125 150.67251586914062 293.54278564453125 C 154.525390625 293.54278564453125 157.41506958007812 292.7232666015625 159.34149169921875 291.084228515625 C 161.2679443359375 289.4451904296875 162.23117065429688 286.98663330078125 162.23117065429688 283.70855712890625 C 162.23117065429688 280.43048095703125 161.28546142578125 277.9893798828125 159.39404296875 276.38519287109375 C 157.50262451171875 274.781005859375 154.50787353515625 273.97894287109375 150.40982055664062 273.97894287109375 C 145.73379516601562 273.97894287109375 141.05780029296875 273.97894287109375 136.38177490234375 273.97894287109375M 136.38177490234375 327.02105712890625 C 141.70578002929688 327.02105712890625 147.02978515625 327.02105712890625 152.353759765625 327.02105712890625 C 156.76708984375 327.02105712890625 160.07705688476562 326.1143798828125 162.28372192382812 324.30096435546875 C 164.4903564453125 322.487548828125 165.59368896484375 319.7674560546875 165.59368896484375 316.140625 C 165.59368896484375 312.618408203125 164.43783569335938 309.96807861328125 162.1260986328125 308.1895751953125 C 159.81436157226562 306.4110107421875 156.697021484375 305.521728515625 152.77407836914062 305.521728515625 C 147.30999755859375 305.521728515625 141.84588623046875 305.521728515625 136.38177490234375 305.521728515625 C 136.38177490234375 309.10498046875 136.38177490234375 312.68817138671875 136.38177490234375 316.2713623046875 C 136.38177490234375 319.8546142578125 136.38177490234375 323.4378662109375 136.38177490234375 327.02105712890625"/>
    <path stroke-width="0" fill="rgb(0, 0, 0)" opacity="1.0" d="M 221.75830078125 339.0 C 219.22329711914062 339.0 216.84671020507812 338.84661865234375 214.6285400390625 338.539794921875 C 212.410400390625 338.2330322265625 210.3507080078125 337.77288818359375 208.44943237304688 337.15936279296875 C 204.64688110351562 335.9322509765625 201.47811889648438 334.09161376953125 198.94308471679688 331.63739013671875 C 196.40805053710938 329.1832275390625 194.50677490234375 326.115478515625 193.2392578125 322.43414306640625 C 192.60552978515625 320.593505859375 192.13018798828125 318.5994873046875 191.81332397460938 316.4520263671875 C 191.4964599609375 314.3045654296875 191.3380126953125 312.0037841796875 191.3380126953125 309.549560546875 C 191.3380126953125 305.587158203125 191.3380126953125 301.6246337890625 191.3380126953125 297.6622314453125 C 191.3380126953125 293.69970703125 191.3380126953125 289.7373046875 191.3380126953125 285.7747802734375 C 191.3380126953125 281.81231689453125 191.3380126953125 277.849853515625 191.3380126953125 273.88739013671875 C 191.3380126953125 269.9249267578125 191.3380126953125 265.96246337890625 191.3380126953125 262.0 C 193.94744873046875 262.0 196.55691528320312 262.0 199.1663818359375 262.0 C 201.77581787109375 262.0 204.38528442382812 262.0 206.9947509765625 262.0 C 206.9947509765625 265.99298095703125 206.9947509765625 269.9859619140625 206.9947509765625 273.97894287109375 C 206.9947509765625 277.971923828125 206.9947509765625 281.96490478515625 206.9947509765625 285.9578857421875 C 206.9947509765625 289.95086669921875 206.9947509765625 293.94384765625 206.9947509765625 297.93682861328125 C 206.9947509765625 301.9298095703125 206.9947509765625 305.92279052734375 206.9947509765625 309.915771484375 C 206.9947509765625 312.53125 207.29904174804688 314.81982421875 207.90762329101562 316.78143310546875 C 208.51620483398438 318.7430419921875 209.4290771484375 320.377685546875 210.646240234375 321.6854248046875 C 213.08056640625 324.30096435546875 216.7320556640625 325.60870361328125 221.6007080078125 325.60870361328125 C 226.4693603515625 325.60870361328125 230.120849609375 324.30096435546875 232.55517578125 321.6854248046875 C 233.7723388671875 320.377685546875 234.68521118164062 318.7430419921875 235.29379272460938 316.78143310546875 C 235.90234375 314.81982421875 236.2066650390625 312.53125 236.2066650390625 309.915771484375 C 236.2066650390625 305.92279052734375 236.2066650390625 301.9298095703125 236.2066650390625 297.93682861328125 C 236.2066650390625 293.94384765625 236.2066650390625 289.95086669921875 236.2066650390625 285.9578857421875 C 236.2066650390625 281.96490478515625 236.2066650390625 277.971923828125 236.2066650390625 273.97894287109375 C 236.2066650390625 269.9859619140625 236.2066650390625 265.99298095703125 236.2066650390625 262.0 C 238.81610107421875 262.0 241.42556762695312 262.0 244.0350341796875 262.0 C 246.64447021484375 262.0 249.25393676757812 262.0 251.8634033203125 262.0 C 251.8634033203125 265.96246337890625 251.8634033203125 269.9249267578125 251.8634033203125 273.88739013671875 C 251.8634033203125 277.849853515625 251.8634033203125 281.81231689453125 251.8634033203125 285.7747802734375 C 251.8634033203125 289.7373046875 251.8634033203125 293.69970703125 251.8634033203125 297.6622314453125 C 251.8634033203125 301.6246337890625 251.8634033203125 305.587158203125 251.8634033203125 309.549560546875 C 251.8634033203125 311.8250732421875 251.71234130859375 313.98065185546875 251.41024780273438 316.016357421875 C 251.108154296875 318.0521240234375 250.65496826171875 319.96795654296875 250.05078125 321.763916015625 C 248.84237670898438 325.3558349609375 247.02978515625 328.46826171875 244.61297607421875 331.1011962890625 C 242.21365356445312 333.734130859375 239.10946655273438 335.7088623046875 235.30035400390625 337.0252685546875 C 233.39581298828125 337.68353271484375 231.31500244140625 338.17724609375 229.05801391601562 338.50634765625 C 226.801025390625 338.83544921875 224.3677978515625 339.0 221.75830078125 339.0"/>
    <path stroke-width="0" fill="rgb(0, 0, 0)" opacity="1.0" d="M 265.3134765625 339.0 C 265.3134765625 335.7916259765625 265.3134765625 332.5833740234375 265.3134765625 329.375 C 265.3134765625 326.1666259765625 265.3134765625 322.9583740234375 265.3134765625 319.75 C 265.3134765625 316.5416259765625 265.3134765625 313.3333740234375 265.3134765625 310.125 C 265.3134765625 306.9166259765625 265.3134765625 303.7083740234375 265.3134765625 300.5 C 265.3134765625 297.2916259765625 265.3134765625 294.0833740234375 265.3134765625 290.875 C 265.3134765625 287.6666259765625 265.3134765625 284.4583740234375 265.3134765625 281.25 C 265.3134765625 278.0416259765625 265.3134765625 274.8333740234375 265.3134765625 271.625 C 265.3134765625 268.4166259765625 265.3134765625 265.2083740234375 265.3134765625 262.0 C 268.35198974609375 262.0 271.39056396484375 262.0 274.4290771484375 262.0 C 277.46759033203125 262.0 280.5061340332031 262.0 283.544677734375 262.0 C 285.73382568359375 265.696533203125 287.9229431152344 269.39312744140625 290.1120910644531 273.08966064453125 C 292.30120849609375 276.7862548828125 294.4903564453125 280.4827880859375 296.67950439453125 284.1793212890625 C 298.86865234375 287.87591552734375 301.05780029296875 291.57244873046875 303.2469482421875 295.26904296875 C 305.43609619140625 298.965576171875 307.6252136230469 302.662109375 309.8143615722656 306.35870361328125 C 310.44482421875 307.474609375 311.0753173828125 308.712646484375 311.7057800292969 310.07269287109375 C 312.33624267578125 311.3978271484375 312.8091125488281 312.4615478515625 313.12432861328125 313.2635498046875 C 313.26446533203125 313.647216796875 313.404541015625 314.03076171875 313.544677734375 314.4144287109375 C 313.544677734375 314.4144287109375 313.544677734375 314.4144287109375 313.544677734375 314.4144287109375 C 313.544677734375 310.0465087890625 313.544677734375 305.6787109375 313.544677734375 301.310791015625 C 313.544677734375 296.94293212890625 313.544677734375 292.5750732421875 313.544677734375 288.20721435546875 C 313.544677734375 283.83935546875 313.544677734375 279.471435546875 313.544677734375 275.1036376953125 C 313.544677734375 270.7357177734375 313.544677734375 266.36785888671875 313.544677734375 262.0 C 316.15411376953125 262.0 318.7635498046875 262.0 321.373046875 262.0 C 323.98248291015625 262.0 326.5919189453125 262.0 329.201416015625 262.0 C 329.201416015625 265.2083740234375 329.201416015625 268.4166259765625 329.201416015625 271.625 C 329.201416015625 274.8333740234375 329.201416015625 278.0416259765625 329.201416015625 281.25 C 329.201416015625 284.4583740234375 329.201416015625 287.6666259765625 329.201416015625 290.875 C 329.201416015625 294.0833740234375 329.201416015625 297.2916259765625 329.201416015625 300.5 C 329.201416015625 303.7083740234375 329.201416015625 306.9166259765625 329.201416015625 310.125 C 329.201416015625 313.3333740234375 329.201416015625 316.5416259765625 329.201416015625 319.75 C 329.201416015625 322.9583740234375 329.201416015625 326.1666259765625 329.201416015625 329.375 C 329.201416015625 332.5833740234375 329.201416015625 335.7916259765625 329.201416015625 339.0 C 326.28546142578125 339.0 323.3695068359375 339.0 320.4535827636719 339.0 C 317.53765869140625 339.0 314.6217041015625 339.0 311.7057800292969 339.0 C 309.464111328125 335.242431640625 307.222412109375 331.48486328125 304.980712890625 327.72723388671875 C 302.7390441894531 323.96966552734375 300.49737548828125 320.2120361328125 298.25567626953125 316.4544677734375 C 296.0140075683594 312.6968994140625 293.7723388671875 308.9393310546875 291.5306396484375 305.1817626953125 C 289.2889404296875 301.42413330078125 287.04730224609375 297.66656494140625 284.80560302734375 293.908935546875 C 284.1051025390625 292.68841552734375 283.4395751953125 291.3980712890625 282.8091125488281 290.0380859375 C 282.21368408203125 288.677978515625 281.7408142089844 287.6318359375 281.39056396484375 286.8994140625 C 281.25042724609375 286.515869140625 281.1103515625 286.13226318359375 280.97021484375 285.7486572265625 C 280.97021484375 285.7486572265625 280.97021484375 285.7486572265625 280.97021484375 285.7486572265625 C 280.97021484375 287.9674072265625 280.97021484375 290.186279296875 280.97021484375 292.405029296875 C 280.97021484375 294.6239013671875 280.97021484375 296.8426513671875 280.97021484375 299.0615234375 C 280.97021484375 303.49908447265625 280.97021484375 307.93670654296875 280.97021484375 312.37432861328125 C 280.97021484375 314.5931396484375 280.97021484375 316.81195068359375 280.97021484375 319.03076171875 C 280.97021484375 321.24951171875 280.97021484375 323.4683837890625 280.97021484375 325.6871337890625 C 280.97021484375 330.124755859375 280.97021484375 334.5623779296875 280.97021484375 339.0 C 278.36077880859375 339.0 275.7513122558594 339.0 273.141845703125 339.0 C 270.53240966796875 339.0 267.9229431152344 339.0 265.3134765625 339.0"/>
    <path stroke-width="0" fill="rgb(0, 0, 0)" opacity="1.0" d="M 342.6514892578125 339.0 C 342.6514892578125 335.7916259765625 342.6514892578125 332.5833740234375 342.6514892578125 329.375 C 342.6514892578125 326.1666259765625 342.6514892578125 322.9583740234375 342.6514892578125 319.75 C 342.6514892578125 316.5416259765625 342.6514892578125 313.3333740234375 342.6514892578125 310.125 C 342.6514892578125 306.9166259765625 342.6514892578125 303.7083740234375 342.6514892578125 300.5 C 342.6514892578125 297.2916259765625 342.6514892578125 294.0833740234375 342.6514892578125 290.875 C 342.6514892578125 287.6666259765625 342.6514892578125 284.4583740234375 342.6514892578125 281.25 C 342.6514892578125 278.0416259765625 342.6514892578125 274.8333740234375 342.6514892578125 271.625 C 342.6514892578125 268.4166259765625 342.6514892578125 265.2083740234375 342.6514892578125 262.0 C 345.6900634765625 262.0 348.728515625 262.0 351.76708984375 262.0 C 354.80560302734375 262.0 357.8441162109375 262.0 360.8826904296875 262.0 C 363.07177734375 265.696533203125 365.260986328125 269.39312744140625 367.4500732421875 273.08966064453125 C 369.63922119140625 276.7862548828125 371.828369140625 280.4827880859375 374.01751708984375 284.1793212890625 C 376.2066650390625 287.87591552734375 378.39581298828125 291.57244873046875 380.5849609375 295.26904296875 C 382.7740478515625 298.965576171875 384.9632568359375 302.662109375 387.15234375 306.35870361328125 C 387.7828369140625 307.474609375 388.413330078125 308.712646484375 389.0438232421875 310.07269287109375 C 389.67425537109375 311.3978271484375 390.1470947265625 312.4615478515625 390.46234130859375 313.2635498046875 C 390.6024169921875 313.647216796875 390.7425537109375 314.03076171875 390.8826904296875 314.4144287109375 C 390.8826904296875 314.4144287109375 390.8826904296875 314.4144287109375 390.8826904296875 314.4144287109375 C 390.8826904296875 310.0465087890625 390.8826904296875 305.6787109375 390.8826904296875 301.310791015625 C 390.8826904296875 296.94293212890625 390.8826904296875 292.5750732421875 390.8826904296875 288.20721435546875 C 390.8826904296875 283.83935546875 390.8826904296875 279.471435546875 390.8826904296875 275.1036376953125 C 390.8826904296875 270.7357177734375 390.8826904296875 266.36785888671875 390.8826904296875 262.0 C 393.4920654296875 262.0 396.1015625 262.0 398.7110595703125 262.0 C 401.32049560546875 262.0 403.929931640625 262.0 406.5394287109375 262.0 C 406.5394287109375 265.2083740234375 406.5394287109375 268.4166259765625 406.5394287109375 271.625 C 406.5394287109375 274.8333740234375 406.5394287109375 278.0416259765625 406.5394287109375 281.25 C 406.5394287109375 284.4583740234375 406.5394287109375 287.6666259765625 406.5394287109375 290.875 C 406.5394287109375 294.0833740234375 406.5394287109375 297.2916259765625 406.5394287109375 300.5 C 406.5394287109375 303.7083740234375 406.5394287109375 306.9166259765625 406.5394287109375 310.125 C 406.5394287109375 313.3333740234375 406.5394287109375 316.5416259765625 406.5394287109375 319.75 C 406.5394287109375 322.9583740234375 406.5394287109375 326.1666259765625 406.5394287109375 329.375 C 406.5394287109375 332.5833740234375 406.5394287109375 335.7916259765625 406.5394287109375 339.0 C 403.62347412109375 339.0 400.70751953125 339.0 397.7916259765625 339.0 C 394.87567138671875 339.0 391.959716796875 339.0 389.0438232421875 339.0 C 386.8021240234375 335.242431640625 384.5604248046875 331.48486328125 382.3187255859375 327.72723388671875 C 380.0770263671875 323.96966552734375 377.8353271484375 320.2120361328125 375.59368896484375 316.4544677734375 C 373.35205078125 312.6968994140625 371.1103515625 308.9393310546875 368.86865234375 305.1817626953125 C 366.626953125 301.42413330078125 364.38525390625 297.66656494140625 362.14361572265625 293.908935546875 C 361.44305419921875 292.68841552734375 360.777587890625 291.3980712890625 360.1470947265625 290.0380859375 C 359.5516357421875 288.677978515625 359.07879638671875 287.6318359375 358.728515625 286.8994140625 C 358.58843994140625 286.515869140625 358.4483642578125 286.13226318359375 358.3082275390625 285.7486572265625 C 358.3082275390625 285.7486572265625 358.3082275390625 285.7486572265625 358.3082275390625 285.7486572265625 C 358.3082275390625 287.9674072265625 358.3082275390625 290.186279296875 358.3082275390625 292.405029296875 C 358.3082275390625 294.6239013671875 358.3082275390625 296.8426513671875 358.3082275390625 299.0615234375 C 358.3082275390625 303.49908447265625 358.3082275390625 307.93670654296875 358.3082275390625 312.37432861328125 C 358.3082275390625 314.5931396484375 358.3082275390625 316.81195068359375 358.3082275390625 319.03076171875 C 358.3082275390625 321.24951171875 358.3082275390625 323.4683837890625 358.3082275390625 325.6871337890625 C 358.3082275390625 330.124755859375 358.3082275390625 334.5623779296875 358.3082275390625 339.0 C 355.69879150390625 339.0 353.08929443359375 339.0 350.4798583984375 339.0 C 347.87042236328125 339.0 345.26092529296875 339.0 342.6514892578125 339.0"/>
    <path stroke-width="0" fill="rgb(0, 0, 0)" opacity="1.0" d="M 440.16461181640625 339.0 C 440.16461181640625 337.6748046875 440.16461181640625 336.349609375 440.16461181640625 335.0244140625 C 440.16461181640625 333.69927978515625 440.16461181640625 332.37408447265625 440.16461181640625 331.0489501953125 C 440.16461181640625 329.7237548828125 440.16461181640625 328.3985595703125 440.16461181640625 327.0733642578125 C 440.16461181640625 325.7481689453125 440.16461181640625 324.4229736328125 440.16461181640625 323.09783935546875 C 440.16461181640625 321.77264404296875 440.16461181640625 320.44744873046875 440.16461181640625 319.122314453125 C 440.16461181640625 317.797119140625 440.16461181640625 316.471923828125 440.16461181640625 315.146728515625 C 440.16461181640625 313.821533203125 440.16461181640625 312.496337890625 440.16461181640625 311.17120361328125 C 440.16461181640625 309.84600830078125 440.16461181640625 308.5208740234375 440.16461181640625 307.1956787109375 C 439.6260986328125 306.25408935546875 439.0875244140625 305.3125 438.549072265625 304.37091064453125 C 438.010498046875 303.4293212890625 437.47198486328125 302.48779296875 436.9334716796875 301.54620361328125 C 436.3948974609375 300.6046142578125 435.85638427734375 299.6630859375 435.31787109375 298.721435546875 C 434.779296875 297.7799072265625 434.2408447265625 296.83831787109375 433.7022705078125 295.896728515625 C 433.16375732421875 294.9552001953125 432.625244140625 294.0135498046875 432.086669921875 293.072021484375 C 431.54815673828125 292.13043212890625 431.0096435546875 291.1888427734375 430.4710693359375 290.247314453125 C 429.9326171875 289.3056640625 429.39404296875 288.3641357421875 428.85552978515625 287.42254638671875 C 428.3170166015625 286.48095703125 427.7784423828125 285.5394287109375 427.23992919921875 284.59783935546875 C 426.701416015625 283.65625 426.162841796875 282.71466064453125 425.62432861328125 281.7730712890625 C 425.0858154296875 280.83154296875 424.5472412109375 279.88995361328125 424.0087890625 278.9483642578125 C 423.47021484375 278.0068359375 422.93170166015625 277.065185546875 422.3931884765625 276.1236572265625 C 421.8546142578125 275.18206787109375 421.31610107421875 274.240478515625 420.777587890625 273.2989501953125 C 420.239013671875 272.3572998046875 419.7005615234375 271.415771484375 419.1619873046875 270.47418212890625 C 418.62347412109375 269.5325927734375 418.0849609375 268.591064453125 417.54638671875 267.64947509765625 C 417.00787353515625 266.7078857421875 416.4693603515625 265.76629638671875 415.9307861328125 264.82470703125 C 415.392333984375 263.8831787109375 414.853759765625 262.94158935546875 414.31524658203125 262.0 C 415.7425537109375 262.0 417.169921875 262.0 418.59716796875 262.0 C 420.0245361328125 262.0 421.45184326171875 262.0 422.879150390625 262.0 C 424.30645751953125 262.0 425.7337646484375 262.0 427.1611328125 262.0 C 428.58843994140625 262.0 430.0157470703125 262.0 431.443115234375 262.0 C 431.7955322265625 262.646240234375 432.14794921875 263.29248046875 432.50042724609375 263.938720703125 C 432.8529052734375 264.5849609375 433.205322265625 265.231201171875 433.55780029296875 265.87744140625 C 434.2626953125 267.169921875 434.9676513671875 268.46240234375 435.6724853515625 269.75494384765625 C 436.02496337890625 270.40118408203125 436.37744140625 271.04742431640625 436.7298583984375 271.69366455078125 C 437.082275390625 272.33990478515625 437.43475341796875 272.98614501953125 437.7872314453125 273.63238525390625 C 438.1396484375 274.27862548828125 438.4920654296875 274.92486572265625 438.8446044921875 275.57110595703125 C 439.197021484375 276.21734619140625 439.5494384765625 276.8636474609375 439.90191650390625 277.5098876953125 C 440.25439453125 278.1561279296875 440.6068115234375 278.8023681640625 440.95928955078125 279.4486083984375 C 441.311767578125 280.0948486328125 441.6641845703125 280.7410888671875 442.0166015625 281.3873291015625 C 442.7215576171875 282.6798095703125 443.42645263671875 283.9722900390625 444.13134765625 285.2647705078125 C 444.83624267578125 286.5572509765625 445.5411376953125 287.8497314453125 446.24609375 289.1422119140625 C 446.950927734375 290.4346923828125 447.6558837890625 291.7271728515625 448.36077880859375 293.01971435546875 C 449.04595947265625 291.7271728515625 449.731201171875 290.4346923828125 450.4163818359375 289.1422119140625 C 451.1015625 287.8497314453125 451.7867431640625 286.5572509765625 452.47198486328125 285.2647705078125 C 453.15716552734375 283.9722900390625 453.8424072265625 282.6798095703125 454.527587890625 281.3873291015625 C 455.2127685546875 280.0948486328125 455.89794921875 278.8023681640625 456.58319091796875 277.5098876953125 C 457.26837158203125 276.21734619140625 457.95361328125 274.92486572265625 458.6387939453125 273.63238525390625 C 459.323974609375 272.33990478515625 460.00921630859375 271.04742431640625 460.69439697265625 269.75494384765625 C 461.37957763671875 268.46240234375 462.0648193359375 267.169921875 462.75 265.87744140625 C 463.4351806640625 264.5849609375 464.12042236328125 263.29248046875 464.80560302734375 262.0 C 466.1322021484375 262.0 467.4588623046875 262.0 468.78546142578125 262.0 C 470.112060546875 262.0 471.438720703125 262.0 472.76531982421875 262.0 C 474.0919189453125 262.0 475.4185791015625 262.0 476.74517822265625 262.0 C 478.07177734375 262.0 479.3984375 262.0 480.72503662109375 262.0 C 480.2061767578125 262.92413330078125 479.6873779296875 263.8482666015625 479.1685791015625 264.7724609375 C 478.6497802734375 265.696533203125 478.13092041015625 266.6207275390625 477.612060546875 267.5447998046875 C 477.09326171875 268.468994140625 476.574462890625 269.39312744140625 476.05560302734375 270.3172607421875 C 475.5367431640625 271.24139404296875 475.0179443359375 272.16552734375 474.4991455078125 273.08966064453125 C 473.98028564453125 274.0137939453125 473.46142578125 274.93798828125 472.942626953125 275.862060546875 C 472.423828125 276.7862548828125 471.905029296875 277.71038818359375 471.38616943359375 278.634521484375 C 470.8673095703125 279.55865478515625 470.3485107421875 280.4827880859375 469.8297119140625 281.40692138671875 C 469.31085205078125 282.3310546875 468.7919921875 283.2552490234375 468.273193359375 284.1793212890625 C 467.75439453125 285.103515625 467.235595703125 286.027587890625 466.71673583984375 286.9517822265625 C 466.1978759765625 287.87591552734375 465.6790771484375 288.800048828125 465.1602783203125 289.72418212890625 C 464.64141845703125 290.6483154296875 464.12255859375 291.57244873046875 463.603759765625 292.49658203125 C 463.0849609375 293.4207763671875 462.56610107421875 294.3448486328125 462.0472412109375 295.26904296875 C 461.5284423828125 296.19317626953125 461.0096435546875 297.1173095703125 460.4908447265625 298.04144287109375 C 459.97198486328125 298.965576171875 459.453125 299.88970947265625 458.934326171875 300.8138427734375 C 458.41552734375 301.738037109375 457.89666748046875 302.662109375 457.3778076171875 303.5863037109375 C 456.8590087890625 304.5103759765625 456.3402099609375 305.4345703125 455.8214111328125 306.35870361328125 C 455.8214111328125 307.71875 455.8214111328125 309.07879638671875 455.8214111328125 310.4388427734375 C 455.8214111328125 311.7989501953125 455.8214111328125 313.158935546875 455.8214111328125 314.51904296875 C 455.8214111328125 315.87908935546875 455.8214111328125 317.2391357421875 455.8214111328125 318.59918212890625 C 455.8214111328125 319.959228515625 455.8214111328125 321.3193359375 455.8214111328125 322.6793212890625 C 455.8214111328125 324.0394287109375 455.8214111328125 325.3994140625 455.8214111328125 326.759521484375 C 455.8214111328125 328.11956787109375 455.8214111328125 329.4796142578125 455.8214111328125 330.83966064453125 C 455.8214111328125 332.19970703125 455.8214111328125 333.559814453125 455.8214111328125 334.9197998046875 C 455.8214111328125 336.2799072265625 455.8214111328125 337.63995361328125 455.8214111328125 339.0 C 454.5166015625 339.0 453.2119140625 339.0 451.90716552734375 339.0 C 450.6024169921875 339.0 449.2977294921875 339.0 447.99298095703125 339.0 C 446.688232421875 339.0 445.383544921875 339.0 444.07879638671875 339.0 C 442.7740478515625 339.0 441.4693603515625 339.0 440.16461181640625 339.0"/>
  </g>
</svg>
