<?xml version="1.0" ?>
<svg xmlns="http://www.w3.org/2000/svg" version="1.1" width="600" height="600">
  <defs/>
  <g>
    <path stroke-width="0" fill="rgb(0, 0, 0)" opacity="1.0" d="M 159.29013061523438 480.0 C 159.29013061523438 465.0 159.29013061523438 450.0 159.29013061523438 435.0 C 159.29013061523438 420.0 159.29013061523438 405.0 159.29013061523438 390.0 C 159.29013061523438 375.0 159.29013061523438 360.0 159.29013061523438 345.0 C 159.29013061523438 330.0 159.29013061523438 315.0 159.29013061523438 300.0 C 159.29013061523438 285.0 159.29013061523438 270.0 159.29013061523438 255.0 C 159.29013061523438 240.0 159.29013061523438 225.0 159.29013061523438 210.0 C 159.29013061523438 195.0 159.29013061523438 180.0 159.29013061523438 165.0 C 159.29013061523438 150.0 159.29013061523438 135.0 159.29013061523438 120.0 C 172.20547485351562 120.0 185.12078857421875 120.0 198.0361328125 120.0 C 210.95144653320312 120.0 223.86676025390625 120.0 236.7821044921875 120.0 C 249.69744873046875 120.0 262.61279296875 120.0 275.528076171875 120.0 C 288.44342041015625 120.0 301.3587646484375 120.0 314.2740783691406 120.0 C 331.8747863769531 120.0 347.49951171875 122.05841064453125 361.148193359375 126.17526245117188 C 374.796875 130.2921142578125 386.46954345703125 136.4674072265625 396.166259765625 144.70108032226562 C 415.5595703125 161.00543212890625 425.25628662109375 182.3641357421875 425.25628662109375 208.77716064453125 C 425.25628662109375 228.83154296875 420.4893798828125 245.584228515625 410.9556884765625 259.03533935546875 C 401.4219970703125 272.48638916015625 387.1214599609375 282.6358642578125 368.05401611328125 289.48370361328125 C 368.05401611328125 289.89129638671875 368.05401611328125 290.29888916015625 368.05401611328125 290.70654296875 C 389.0770263671875 294.9456481933594 406.433349609375 304.07611083984375 420.12274169921875 318.09783935546875 C 433.97509765625 331.95654296875 440.9013671875 350.2174072265625 440.9013671875 372.88043212890625 C 440.9013671875 389.34783935546875 438.0697021484375 404.103271484375 432.40655517578125 417.146728515625 C 426.743408203125 430.190185546875 418.24859619140625 441.521728515625 406.9222412109375 451.14129638671875 C 395.5958251953125 460.7608642578125 382.110107421875 467.9755859375 366.46502685546875 472.78533935546875 C 350.8199462890625 477.5950927734375 333.01556396484375 480.0 313.05181884765625 480.0 C 287.42486572265625 480.0 261.79791259765625 480.0 236.17095947265625 480.0 C 210.54400634765625 480.0 184.91708374023438 480.0 159.29013061523438 480.0M 232.13748168945312 176.00543212890625 C 232.13748168945312 191.25 232.13748168945312 206.49456787109375 232.13748168945312 221.7391357421875 C 232.13748168945312 236.98370361328125 232.13748168945312 252.228271484375 232.13748168945312 267.47283935546875 C 254.30133056640625 267.47283935546875 276.46514892578125 267.47283935546875 298.6290283203125 267.47283935546875 C 316.5556640625 267.47283935546875 330.0006103515625 263.64129638671875 338.9639587402344 255.978271484375 C 347.92724609375 248.31521606445312 352.408935546875 236.8206787109375 352.408935546875 221.49456787109375 C 352.408935546875 206.16848754882812 348.0087890625 194.75543212890625 339.2084045410156 187.25543212890625 C 330.4080505371094 179.75543212890625 316.47418212890625 176.00543212890625 297.40673828125 176.00543212890625 C 275.65032958984375 176.00543212890625 253.89389038085938 176.00543212890625 232.13748168945312 176.00543212890625M 232.13748168945312 423.99456787109375 C 256.9088134765625 423.99456787109375 281.68017578125 423.99456787109375 306.4515380859375 423.99456787109375 C 326.9857177734375 423.99456787109375 342.38629150390625 419.75543212890625 352.65338134765625 411.27716064453125 C 362.92047119140625 402.7989501953125 368.05401611328125 390.08154296875 368.05401611328125 373.125 C 368.05401611328125 356.6575927734375 362.676025390625 344.26629638671875 351.9200439453125 335.9510498046875 C 341.1640625 327.6358642578125 326.6597595214844 323.478271484375 308.40716552734375 323.478271484375 C 282.98394775390625 323.478271484375 257.56072998046875 323.478271484375 232.13748168945312 323.478271484375 C 232.13748168945312 340.23095703125 232.13748168945312 356.98370361328125 232.13748168945312 373.7364501953125 C 232.13748168945312 390.4891357421875 232.13748168945312 407.2418212890625 232.13748168945312 423.99456787109375"/>
  </g>
</svg>
