<?xml version="1.0" ?>
<svg xmlns="http://www.w3.org/2000/svg" version="1.1" width="600" height="600">
  <defs/>
  <g>
    <path stroke-width="0" fill="rgb(0, 0, 0)" opacity="1.0" d="M 151.8646240234375 480.0 C 151.8646240234375 465.0 151.8646240234375 450.0 151.8646240234375 435.0 C 151.8646240234375 420.0 151.8646240234375 405.0 151.8646240234375 390.0 C 151.8646240234375 375.0 151.8646240234375 360.0 151.8646240234375 345.0 C 151.8646240234375 330.0 151.8646240234375 315.0 151.8646240234375 300.0 C 151.8646240234375 285.0 151.8646240234375 270.0 151.8646240234375 255.0 C 151.8646240234375 240.0 151.8646240234375 225.0 151.8646240234375 210.0 C 151.8646240234375 195.0 151.8646240234375 180.0 151.8646240234375 165.0 C 151.8646240234375 150.0 151.8646240234375 135.0 151.8646240234375 120.0 C 166.002197265625 120.0 180.1397705078125 120.0 194.27734375 120.0 C 208.4150390625 120.0 222.552490234375 120.0 236.690185546875 120.0 C 246.875732421875 137.2825927734375 257.0614013671875 154.56521606445312 267.2469482421875 171.84783935546875 C 277.4324951171875 189.13043212890625 287.6181640625 206.41305541992188 297.8037109375 223.69564819335938 C 307.9892578125 240.978271484375 318.1749267578125 258.2608642578125 328.3604736328125 275.54345703125 C 338.5460205078125 292.82611083984375 348.731689453125 310.10870361328125 358.917236328125 327.39129638671875 C 361.8507080078125 332.60870361328125 364.7841796875 338.396728515625 367.7176513671875 344.75543212890625 C 370.6510009765625 350.9510498046875 372.8511962890625 355.9239501953125 374.31787109375 359.6739501953125 C 374.9697265625 361.4674072265625 375.6217041015625 363.2608642578125 376.2735595703125 365.0543212890625 C 376.2735595703125 365.0543212890625 376.2735595703125 365.0543212890625 376.2735595703125 365.0543212890625 C 376.2735595703125 344.6331787109375 376.2735595703125 324.21197509765625 376.2735595703125 303.790771484375 C 376.2735595703125 283.36956787109375 376.2735595703125 262.9483642578125 376.2735595703125 242.52716064453125 C 376.2735595703125 222.10598754882812 376.2735595703125 201.68478393554688 376.2735595703125 181.26358032226562 C 376.2735595703125 160.84237670898438 376.2735595703125 140.42120361328125 376.2735595703125 120.0 C 388.4146728515625 120.0 400.5560302734375 120.0 412.6971435546875 120.0 C 424.83837890625 120.0 436.9796142578125 120.0 449.120849609375 120.0 C 449.120849609375 135.0 449.120849609375 150.0 449.120849609375 165.0 C 449.120849609375 180.0 449.120849609375 195.0 449.120849609375 210.0 C 449.120849609375 225.0 449.120849609375 240.0 449.120849609375 255.0 C 449.120849609375 270.0 449.120849609375 285.0 449.120849609375 300.0 C 449.120849609375 315.0 449.120849609375 330.0 449.120849609375 345.0 C 449.120849609375 360.0 449.120849609375 375.0 449.120849609375 390.0 C 449.120849609375 405.0 449.120849609375 420.0 449.120849609375 435.0 C 449.120849609375 450.0 449.120849609375 465.0 449.120849609375 480.0 C 435.5535888671875 480.0 421.9864501953125 480.0 408.419189453125 480.0 C 394.85205078125 480.0 381.2847900390625 480.0 367.7176513671875 480.0 C 357.28759765625 462.43206787109375 346.857421875 444.8641357421875 336.427490234375 427.29620361328125 C 325.9974365234375 409.728271484375 315.5673828125 392.16033935546875 305.1373291015625 374.5924072265625 C 294.707275390625 357.0244140625 284.2772216796875 339.45654296875 273.84716796875 321.8885803222656 C 263.417236328125 304.3206787109375 252.987060546875 286.7527160644531 242.55712890625 269.1847839355469 C 239.297607421875 263.478271484375 236.2012939453125 257.4456481933594 233.267822265625 251.08697509765625 C 230.497314453125 244.728271484375 228.2972412109375 239.83697509765625 226.6676025390625 236.41302490234375 C 226.0157470703125 234.61956787109375 225.36376953125 232.82608032226562 224.7119140625 231.0325927734375 C 224.7119140625 231.0325927734375 224.7119140625 231.0325927734375 224.7119140625 231.0325927734375 C 224.7119140625 241.40625 224.7119140625 251.7799072265625 224.7119140625 262.1535339355469 C 224.7119140625 272.52716064453125 224.7119140625 282.90081787109375 224.7119140625 293.27447509765625 C 224.7119140625 314.021728515625 224.7119140625 334.76904296875 224.7119140625 355.51629638671875 C 224.7119140625 365.88995361328125 224.7119140625 376.2635498046875 224.7119140625 386.63720703125 C 224.7119140625 397.0108642578125 224.7119140625 407.384521484375 224.7119140625 417.7581787109375 C 224.7119140625 438.50543212890625 224.7119140625 459.252685546875 224.7119140625 480.0 C 212.5706787109375 480.0 200.429443359375 480.0 188.2882080078125 480.0 C 176.1470947265625 480.0 164.0057373046875 480.0 151.8646240234375 480.0"/>
  </g>
</svg>
