<?xml version="1.0" encoding="utf-8"?>
<svg xmlns="http://www.w3.org/2000/svg" xmlns:ev="http://www.w3.org/2001/xml-events" xmlns:xlink="http://www.w3.org/1999/xlink" version="1.1" baseProfile="full" width="6852.0" height="1472.0" viewBox="128.0 -1472.0 6852.0 1472.0">
<defs/>
<g><path d="M 6208.000000 0.000000 C 6208.000000 -25.333333 6208.000000 -50.666667 6208.000000 -76.000000 C 6208.000000 -101.333333 6208.000000 -126.666667 6208.000000 -152.000000 C 6208.000000 -177.333333 6208.000000 -202.666667 6208.000000 -228.000000 C 6208.000000 -253.333333 6208.000000 -278.666667 6208.000000 -304.000000 C 6208.000000 -329.333333 6208.000000 -354.666667 6208.000000 -380.000000 C 6208.000000 -405.333333 6208.000000 -430.666667 6208.000000 -456.000000 C 6208.000000 -481.333333 6208.000000 -506.666667 6208.000000 -532.000000 C 6208.000000 -557.333333 6208.000000 -582.666667 6208.000000 -608.000000 C 6197.750000 -626.000000 6187.500000 -644.000000 6177.250000 -662.000000 C 6167.000000 -680.000000 6156.750000 -698.000000 6146.500000 -716.000000 C 6136.250000 -734.000000 6126.000000 -752.000000 6115.750000 -770.000000 C 6105.500000 -788.000000 6095.250000 -806.000000 6085.000000 -824.000000 C 6074.750000 -842.000000 6064.500000 -860.000000 6054.250000 -878.000000 C 6044.000000 -896.000000 6033.750000 -914.000000 6023.500000 -932.000000 C 6013.250000 -950.000000 6003.000000 -968.000000 5992.750000 -986.000000 C 5982.500000 -1004.000000 5972.250000 -1022.000000 5962.000000 -1040.000000 C 5951.750000 -1058.000000 5941.500000 -1076.000000 5931.250000 -1094.000000 C 5921.000000 -1112.000000 5910.750000 -1130.000000 5900.500000 -1148.000000 C 5890.250000 -1166.000000 5880.000000 -1184.000000 5869.750000 -1202.000000 C 5859.500000 -1220.000000 5849.250000 -1238.000000 5839.000000 -1256.000000 C 5828.750000 -1274.000000 5818.500000 -1292.000000 5808.250000 -1310.000000 C 5798.000000 -1328.000000 5787.750000 -1346.000000 5777.500000 -1364.000000 C 5767.250000 -1382.000000 5757.000000 -1400.000000 5746.750000 -1418.000000 C 5736.500000 -1436.000000 5726.250000 -1454.000000 5716.000000 -1472.000000 C 5743.166667 -1472.000000 5770.333333 -1472.000000 5797.500000 -1472.000000 C 5824.666667 -1472.000000 5851.833333 -1472.000000 5879.000000 -1472.000000 C 5906.166667 -1472.000000 5933.333333 -1472.000000 5960.500000 -1472.000000 C 5987.666667 -1472.000000 6014.833333 -1472.000000 6042.000000 -1472.000000 C 6048.708333 -1459.645833 6055.416667 -1447.291667 6062.125000 -1434.937500 C 6068.833333 -1422.583333 6075.541667 -1410.229167 6082.250000 -1397.875000 C 6095.666667 -1373.166667 6109.083333 -1348.458333 6122.500000 -1323.750000 C 6129.208333 -1311.395833 6135.916667 -1299.041667 6142.625000 -1286.687500 C 6149.333333 -1274.333333 6156.041667 -1261.979167 6162.750000 -1249.625000 C 6169.458333 -1237.270833 6176.166667 -1224.916667 6182.875000 -1212.562500 C 6189.583333 -1200.208333 6196.291667 -1187.854167 6203.000000 -1175.500000 C 6209.708333 -1163.145833 6216.416667 -1150.791667 6223.125000 -1138.437500 C 6229.833333 -1126.083333 6236.541667 -1113.729167 6243.250000 -1101.375000 C 6256.666667 -1076.666667 6270.083333 -1051.958333 6283.500000 -1027.250000 C 6296.916667 -1002.541667 6310.333333 -977.833333 6323.750000 -953.125000 C 6337.166667 -928.416667 6350.583333 -903.708333 6364.000000 -879.000000 C 6377.041667 -903.708333 6390.083333 -928.416667 6403.125000 -953.125000 C 6416.166667 -977.833333 6429.208333 -1002.541667 6442.250000 -1027.250000 C 6455.291667 -1051.958333 6468.333333 -1076.666667 6481.375000 -1101.375000 C 6494.416667 -1126.083333 6507.458333 -1150.791667 6520.500000 -1175.500000 C 6533.541667 -1200.208333 6546.583333 -1224.916667 6559.625000 -1249.625000 C 6572.666667 -1274.333333 6585.708333 -1299.041667 6598.750000 -1323.750000 C 6611.791667 -1348.458333 6624.833333 -1373.166667 6637.875000 -1397.875000 C 6650.916667 -1422.583333 6663.958333 -1447.291667 6677.000000 -1472.000000 C 6702.250000 -1472.000000 6727.500000 -1472.000000 6752.750000 -1472.000000 C 6778.000000 -1472.000000 6803.250000 -1472.000000 6828.500000 -1472.000000 C 6853.750000 -1472.000000 6879.000000 -1472.000000 6904.250000 -1472.000000 C 6929.500000 -1472.000000 6954.750000 -1472.000000 6980.000000 -1472.000000 C 6970.125000 -1454.333333 6960.250000 -1436.666667 6950.375000 -1419.000000 C 6940.500000 -1401.333333 6930.625000 -1383.666667 6920.750000 -1366.000000 C 6910.875000 -1348.333333 6901.000000 -1330.666667 6891.125000 -1313.000000 C 6881.250000 -1295.333333 6871.375000 -1277.666667 6861.500000 -1260.000000 C 6851.625000 -1242.333333 6841.750000 -1224.666667 6831.875000 -1207.000000 C 6822.000000 -1189.333333 6812.125000 -1171.666667 6802.250000 -1154.000000 C 6792.375000 -1136.333333 6782.500000 -1118.666667 6772.625000 -1101.000000 C 6762.750000 -1083.333333 6752.875000 -1065.666667 6743.000000 -1048.000000 C 6733.125000 -1030.333333 6723.250000 -1012.666667 6713.375000 -995.000000 C 6703.500000 -977.333333 6693.625000 -959.666667 6683.750000 -942.000000 C 6673.875000 -924.333333 6664.000000 -906.666667 6654.125000 -889.000000 C 6644.250000 -871.333333 6634.375000 -853.666667 6624.500000 -836.000000 C 6614.625000 -818.333333 6604.750000 -800.666667 6594.875000 -783.000000 C 6585.000000 -765.333333 6575.125000 -747.666667 6565.250000 -730.000000 C 6555.375000 -712.333333 6545.500000 -694.666667 6535.625000 -677.000000 C 6525.750000 -659.333333 6515.875000 -641.666667 6506.000000 -624.000000 C 6506.000000 -598.000000 6506.000000 -572.000000 6506.000000 -546.000000 C 6506.000000 -520.000000 6506.000000 -494.000000 6506.000000 -468.000000 C 6506.000000 -442.000000 6506.000000 -416.000000 6506.000000 -390.000000 C 6506.000000 -364.000000 6506.000000 -338.000000 6506.000000 -312.000000 C 6506.000000 -286.000000 6506.000000 -260.000000 6506.000000 -234.000000 C 6506.000000 -208.000000 6506.000000 -182.000000 6506.000000 -156.000000 C 6506.000000 -130.000000 6506.000000 -104.000000 6506.000000 -78.000000 C 6506.000000 -52.000000 6506.000000 -26.000000 6506.000000 0.000000 C 6481.166667 0.000000 6456.333333 0.000000 6431.500000 0.000000 C 6406.666667 0.000000 6381.833333 0.000000 6357.000000 0.000000 C 6332.166667 0.000000 6307.333333 0.000000 6282.500000 0.000000 C 6257.666667 0.000000 6232.833333 0.000000 6208.000000 0.000000z "/>
</g></svg>
