<?xml version="1.0" encoding="utf-8"?>
<svg xmlns="http://www.w3.org/2000/svg" xmlns:ev="http://www.w3.org/2001/xml-events" xmlns:xlink="http://www.w3.org/1999/xlink" version="1.1" baseProfile="full" width="6852.0" height="1472.0" viewBox="128.0 -1472.0 6852.0 1472.0">
<defs/>
<g><path d="M 128.000000 0.000000 C 128.000000 -61.333333 128.000000 -122.666667 128.000000 -184.000000 C 128.000000 -245.333333 128.000000 -306.666667 128.000000 -368.000000 C 128.000000 -429.333333 128.000000 -490.666667 128.000000 -552.000000 C 128.000000 -613.333333 128.000000 -674.666667 128.000000 -736.000000 C 128.000000 -797.333333 128.000000 -858.666667 128.000000 -920.000000 C 128.000000 -981.333333 128.000000 -1042.666667 128.000000 -1104.000000 C 128.000000 -1165.333333 128.000000 -1226.666667 128.000000 -1288.000000 C 128.000000 -1349.333333 128.000000 -1410.666667 128.000000 -1472.000000 C 180.833333 -1472.000000 233.666667 -1472.000000 286.500000 -1472.000000 C 339.333333 -1472.000000 392.166667 -1472.000000 445.000000 -1472.000000 C 497.833333 -1472.000000 550.666667 -1472.000000 603.500000 -1472.000000 C 656.333333 -1472.000000 709.166667 -1472.000000 762.000000 -1472.000000 C 834.000000 -1472.000000 897.916667 -1463.583333 953.750000 -1446.750000 C 1009.583333 -1429.916667 1057.333333 -1404.666667 1097.000000 -1371.000000 C 1176.333333 -1304.333333 1216.000000 -1217.000000 1216.000000 -1109.000000 C 1216.000000 -1027.000000 1196.500000 -958.500000 1157.500000 -903.500000 C 1118.500000 -848.500000 1060.000000 -807.000000 982.000000 -779.000000 C 982.000000 -777.333333 982.000000 -775.666667 982.000000 -774.000000 C 1068.000000 -756.666667 1139.000000 -719.333333 1195.000000 -662.000000 C 1251.666667 -605.333333 1280.000000 -530.666667 1280.000000 -438.000000 C 1280.000000 -370.666667 1268.416667 -310.333333 1245.250000 -257.000000 C 1222.083333 -203.666667 1187.333333 -157.333333 1141.000000 -118.000000 C 1094.666667 -78.666667 1039.500000 -49.166667 975.500000 -29.500000 C 911.500000 -9.833333 838.666667 0.000000 757.000000 0.000000 C 652.166667 0.000000 547.333333 0.000000 442.500000 0.000000 C 337.666667 0.000000 232.833333 0.000000 128.000000 0.000000z M 426.000000 -1243.000000 C 426.000000 -1180.666667 426.000000 -1118.333333 426.000000 -1056.000000 C 426.000000 -993.666667 426.000000 -931.333333 426.000000 -869.000000 C 516.666667 -869.000000 607.333333 -869.000000 698.000000 -869.000000 C 771.333333 -869.000000 826.333333 -884.666667 863.000000 -916.000000 C 899.666667 -947.333333 918.000000 -994.333333 918.000000 -1057.000000 C 918.000000 -1119.666667 900.000000 -1166.333333 864.000000 -1197.000000 C 828.000000 -1227.666667 771.000000 -1243.000000 693.000000 -1243.000000 C 604.000000 -1243.000000 515.000000 -1243.000000 426.000000 -1243.000000z M 426.000000 -229.000000 C 527.333333 -229.000000 628.666667 -229.000000 730.000000 -229.000000 C 814.000000 -229.000000 877.000000 -246.333333 919.000000 -281.000000 C 961.000000 -315.666667 982.000000 -367.666667 982.000000 -437.000000 C 982.000000 -504.333333 960.000000 -555.000000 916.000000 -589.000000 C 872.000000 -623.000000 812.666667 -640.000000 738.000000 -640.000000 C 634.000000 -640.000000 530.000000 -640.000000 426.000000 -640.000000 C 426.000000 -571.500000 426.000000 -503.000000 426.000000 -434.500000 C 426.000000 -366.000000 426.000000 -297.500000 426.000000 -229.000000z "/>
</g></svg>
