<?xml version="1.0" encoding="utf-8"?>
<svg xmlns="http://www.w3.org/2000/svg" xmlns:ev="http://www.w3.org/2001/xml-events" xmlns:xlink="http://www.w3.org/1999/xlink" version="1.1" baseProfile="full" width="6852.0" height="1472.0" viewBox="128.0 -1472.0 6852.0 1472.0">
<defs/>
<g><path d="M 2051.000000 0.000000 C 2002.750000 0.000000 1957.515625 -2.932292 1915.296875 -8.796875 C 1873.078125 -14.661458 1833.875000 -23.458333 1797.687500 -35.187500 C 1725.312500 -58.645833 1665.000000 -93.833333 1616.750000 -140.750000 C 1568.500000 -187.666667 1532.312500 -246.312500 1508.187500 -316.687500 C 1496.125000 -351.875000 1487.078125 -389.994792 1481.046875 -431.046875 C 1475.015625 -472.098958 1472.000000 -516.083333 1472.000000 -563.000000 C 1472.000000 -638.750000 1472.000000 -714.500000 1472.000000 -790.250000 C 1472.000000 -866.000000 1472.000000 -941.750000 1472.000000 -1017.500000 C 1472.000000 -1093.250000 1472.000000 -1169.000000 1472.000000 -1244.750000 C 1472.000000 -1320.500000 1472.000000 -1396.250000 1472.000000 -1472.000000 C 1521.666667 -1472.000000 1571.333333 -1472.000000 1621.000000 -1472.000000 C 1670.666667 -1472.000000 1720.333333 -1472.000000 1770.000000 -1472.000000 C 1770.000000 -1395.666667 1770.000000 -1319.333333 1770.000000 -1243.000000 C 1770.000000 -1166.666667 1770.000000 -1090.333333 1770.000000 -1014.000000 C 1770.000000 -937.666667 1770.000000 -861.333333 1770.000000 -785.000000 C 1770.000000 -708.666667 1770.000000 -632.333333 1770.000000 -556.000000 C 1770.000000 -506.000000 1775.791667 -462.250000 1787.375000 -424.750000 C 1798.958333 -387.250000 1816.333333 -356.000000 1839.500000 -331.000000 C 1885.833333 -281.000000 1955.333333 -256.000000 2048.000000 -256.000000 C 2140.666667 -256.000000 2210.166667 -281.000000 2256.500000 -331.000000 C 2279.666667 -356.000000 2297.041667 -387.250000 2308.625000 -424.750000 C 2320.208333 -462.250000 2326.000000 -506.000000 2326.000000 -556.000000 C 2326.000000 -632.333333 2326.000000 -708.666667 2326.000000 -785.000000 C 2326.000000 -861.333333 2326.000000 -937.666667 2326.000000 -1014.000000 C 2326.000000 -1090.333333 2326.000000 -1166.666667 2326.000000 -1243.000000 C 2326.000000 -1319.333333 2326.000000 -1395.666667 2326.000000 -1472.000000 C 2375.666667 -1472.000000 2425.333333 -1472.000000 2475.000000 -1472.000000 C 2524.666667 -1472.000000 2574.333333 -1472.000000 2624.000000 -1472.000000 C 2624.000000 -1396.250000 2624.000000 -1320.500000 2624.000000 -1244.750000 C 2624.000000 -1169.000000 2624.000000 -1093.250000 2624.000000 -1017.500000 C 2624.000000 -941.750000 2624.000000 -866.000000 2624.000000 -790.250000 C 2624.000000 -714.500000 2624.000000 -638.750000 2624.000000 -563.000000 C 2624.000000 -519.500000 2621.125000 -478.291667 2615.375000 -439.375000 C 2609.625000 -400.458333 2601.000000 -363.833333 2589.500000 -329.500000 C 2566.500000 -260.833333 2532.000000 -201.333333 2486.000000 -151.000000 C 2440.333333 -100.666667 2381.250000 -62.916667 2308.750000 -37.750000 C 2272.500000 -25.166667 2232.895833 -15.729167 2189.937500 -9.437500 C 2146.979167 -3.145833 2100.666667 0.000000 2051.000000 0.000000z "/>
</g></svg>
